<?xml version="1.0" encoding="utf-8"?>
<!-- Generator: Adobe Illustrator 17.1.0, SVG Export Plug-In . SVG Version: 6.00 Build 0)  -->
<!DOCTYPE svg PUBLIC "-//W3C//DTD SVG 1.1//EN" "http://www.w3.org/Graphics/SVG/1.1/DTD/svg11.dtd">
<svg version="1.1" id="logoDoverie" xmlns:svgjs="http://svgjs.com/svgjs"
	 xmlns="http://www.w3.org/2000/svg" xmlns:xlink="http://www.w3.org/1999/xlink" x="0px" y="0px" viewBox="0 316 612 160"
	 enable-background="new 0 316 612 160" xml:space="preserve">
<g id="SvgjsG1007" transform="translate(97.2245477065444,-182.9112949371338)" xmlns:name="main_text">
	<path fill="#FF9100" d="M143.4,586.6c0,0.2,0,0.4-0.2,0.4s-0.2,0-0.2,0.2c0,0.2,0,0.4-0.2,0.2c-0.2,0-0.4,0-0.6,0
		c-0.4,0-0.6-0.2-0.2-0.4c0.4-0.2,0.4-0.4,0.2-0.6h-0.8c-0.4-0.2-0.4,0-0.4,0.4c0.2,0.4,0,0.6-0.4,0.4c-0.2,0.2-0.4,0.2-0.2-0.2
		c0-0.2,0.2-0.4,0.2-0.6c-0.4,0.2-0.6,0.4-1,0.2c-0.2-0.2-0.4,0.2-0.4,0.8c-0.8,0.2-1.4,0.2-1.8-0.2c-0.4-0.2-1,0-1.6,0.6
		c0-0.2,0-0.4,0.2-0.6c0.2,0,0.4-0.2,0.4-0.6c-0.6,0.4-1.2,0.6-1.8,0.4c-0.6-0.2-1.2,0-1.6,0.6c0,0.4,0.2,0.6,0.4,0.4
		c0.2-0.2,0.2-0.2,0.4,0c-0.2,0.2-0.4,0.4-0.6,0.4c0,0-0.2-0.2-0.2-0.4s-0.2-0.4-0.2-0.6c0-0.2-0.2-0.4-0.2-0.4
		c-0.2,0-0.4,0-0.2,0.2c0.2,0.2,0.2,0.2,0,0.4c-0.6-0.2-1.6-0.2-2.8,0c-1.2,0.2-2.6,0.4-3.7,0.6c0.2,0.4,0.4,0.6,0.6,0.6
		s0.4,0.2,0.4,0.6c-0.8,0-1.2-0.2-1.4-0.4s-0.6-0.4-1-0.8c-0.2,0.2-0.2,0.4,0,0.4c0.2,0.2,0.4,0.2,0.6,0.4c-0.4,0.4-0.8,0.6-1.2,0.6
		c-0.4,0-1-0.2-1.6-0.4v-1c-0.4,0.4-0.8,0.6-1,0.8c-0.4,0.2-0.4,0.6-0.4,1.2c-0.4,0-0.6-0.4-0.4-1.2c-0.2,0-0.4,0-0.4,0.2
		c0,0.2,0,0.4,0,0.6c-2.2,0-4.3,0.2-6.5,0.4c-2.4,0.2-4.7,0.2-7.3-0.2c-0.8,2.2-1.6,4.3-2.6,6.7c-1,2.4-2,4.3-3,6.5
		c-0.6,1-1,1.8-1.4,2.8s-0.8,2-1.4,2.8c-0.6,1-1,1.8-1.6,2.4c-0.6,0.8-1.4,1.2-2.2,1.6c-0.2-5.1,0.2-9.9,1.2-14.4
		c1-4.5,2.4-8.7,4.1-12.2c0.8-0.2,1.4-0.8,1.8-1.8c0.4-1,1-1.4,1.8-1.4c0.4,0,0.8,0,0.8,0.4s0.4,0.4,1,0.4c0.4-0.4,0.8-0.8,1.2-1.2
		c0.4-0.4,0.8-0.8,1.6-1c0-0.8,0.2-1.6,0.2-2.6c0-1,0.2-2,0.2-3c0-1,0.2-2,0.4-3c0.2-1,0.4-1.8,0.6-2.4c-0.2-2.6,0-4.9,0.8-7.3
		c0.8-2.4,1.4-4.3,2.2-6.5c0.2-1.4,0.6-2.2,1.2-2.4c0-1.2,0.4-2.2,1-2.6c0-0.4,0-0.8,0-1.4s0.4-0.8,0.8-0.6c-0.2-0.4-0.2-1,0-1.6
		c0.2-0.6,0.6-1,0.8-1.6c0.4-1.8,1-3.2,1.6-4.5c0.6-1.4,1.4-2.8,2-4.1c0-0.4-0.2-0.6-0.4-0.8s-0.2-0.4,0-1c1-0.4,2-1.4,2.4-3
		c-0.2-0.2-0.4-0.2-0.6-0.4c-0.2,0-0.4-0.2-0.4-0.6c0.2-1,0.6-1.8,1-2.2c0.6-0.4,1-0.8,1.8-1.2c1.4-2.2,3.3-3.7,5.5-4.5
		c2.4-0.8,4.5-1.4,6.9-1.6c0.2,0,0.2-0.2,0.2-0.6c3.2-1.2,6.3-2,9.5-2.4c3.2-0.4,6.3-0.4,9.5,0.2c0.2-0.4,0.2-0.8,0.4-1.2
		s0.2-0.6,0.8-0.8c0.6,0,1,0.4,1.4,0.8c0.4,0.6,0.6,1.2,0.8,2c0.2,0.8,0.4,1.6,0.4,2.4c0,0.8,0.2,1.8,0.2,2.6c0,2.4,0,4.9-0.4,7.5
		c-0.4,2.8-0.6,4.9-0.8,6.9c0,0.8,0,1.6,0.2,2.4s0,1.4-0.6,2c0.4,0.6,0.4,1.4,0.2,2.4s-0.4,2-0.6,3c-0.2,0-0.2,0-0.4-0.2
		c0-0.2-0.2-0.2-0.4,0c0,0.6,0,0.8,0,1c0,0.2,0.2,0.2,0.6,0.4c-0.2,0.4-0.6,0.6-1,0.6c0,0.2,0,0.4,0.4,0.4c-0.2,0.4-0.2,0.8-0.2,1.2
		c0,0.4,0,0.6-0.4,0.8c0.2,1.2,0,2.2-0.4,3c-0.4,0.8-1,1.6-1.4,2.4c-0.4,3.3-1,6.5-2,9.3c-1,2.8-1.8,5.5-2.6,8.5
		c0.6,0.2,1.4,0.2,2,0.2c0.8,0,1.4,0,2.2,0c0.8,0,1.4,0,2,0.2c0.6,0.2,1.2,0.4,1.6,0.8c0.2,0.6,0,1-0.4,1.2
		c-0.4,0.2-0.6,0.6-0.6,1.2c0,0.4,0.2,0.6,0.6,0.6c0.2,0,0.4,0.4,0.6,0.6c0,2.6,0,4.9-0.2,7.5c-0.2,2.4-0.4,4.7-0.6,6.7
		c0,0.4,0,1,0,1.4c0,0.4,0,0.6,0.2,0.6c0,0.4,0,0.6-0.2,0.6s-0.4,0-0.4,0.2c0.4,1,0.4,2.2,0,3.2c-0.4,1-0.8,2.2-0.6,3.5
		c-0.6,0.8-1.2,1.6-1.6,2.6c-0.4,1-1.2,1.4-2.2,1.2c-0.8-0.2-1.4-0.6-1.8-1.4s-0.8-1.8-1-3c0-0.4-0.4-0.4-1-0.2
		c-0.6-0.6-0.8-1.4-1-2.4c-0.2-1-0.2-1.8-0.2-2.8c0-1,0.2-2,0.4-3c0.2-1,0.2-2,0.2-2.8c0-1.6,0-3-0.2-4.5c-0.2-1.4-0.2-3,0-4.5
		c-0.6,0-1.2,0.2-1.4,0.4s-0.6,0.4-0.8,0.6c-0.2,0.2-0.4,0.2-0.8,0.2C144.4,587,144,587,143.4,586.6 M124.7,589.7
		c0-0.4-0.2-0.4-0.4-0.2c-0.2,0.2-0.4,0.4-0.4,0.6h1v-0.4 M157,529.8c0.4-0.4,0.6-1,0.8-1.6c0.2-0.8,0.2-1.4,0.2-2.2
		c0-0.8,0-1.6-0.2-2.2s-0.4-1.2-0.6-1.4c0,1.4-0.2,2.6-0.2,3.7C157,527.5,157,528.6,157,529.8 M148.9,522.5c0.2,0.4,0.6,0.6,1.2,0.6
		s1-0.2,1.2-0.6c-0.2-0.2-0.6-0.2-1,0C149.7,522.7,149.3,522.7,148.9,522.5 M148.3,526.1c0.2,0,0.6,0,0.8,0c0.2,0,0.4-0.2,0.4-0.6
		C148.9,525.5,148.5,525.7,148.3,526.1 M129.6,529c0.4,0.4,1,0.6,1.8,0.4c0.8,0,1.2-0.4,1.2-1c-0.6-0.2-1-0.2-1.6,0.2
		C130.4,529.2,130,529.4,129.6,529 M134.3,528.8c0,0-0.2-0.2-0.2-0.6c-0.6,0-1,0.2-0.8,0.6c0.2,0,0.4-0.2,0.6,0
		S134.3,529,134.3,528.8 M113.9,580.5c0.4,0,1.2-0.2,2.2-0.6s1.8-0.6,2.4-0.4c0,0.2-0.2,0.4-0.6,0.2s-0.4,0-0.2,0.6
		c0,0.2,0.4,0.2,0.6,0c0.4-0.2,0.6,0,0.8,0.4c0,0,0,0.2,0,0.6c-1.2-0.2-2.2-0.2-3,0c-0.8,0.2-1.6,0.2-2.2,0c-0.4,0.6-0.4,1.2,0,1.6
		c1.6-0.2,3-0.4,4.1-0.8c1.2-0.4,2.6-0.6,4.3-0.6c0-0.2,0-0.4,0-0.4c0-0.2,0-0.2,0.2-0.2c0.2,0,0.2,0,0.4,0.2c0,0.2,0.2,0.4,0.2,0.6
		c0.2-0.4,0.6-0.6,1.2-0.6c0.6,0,1-0.4,1.2-1c0,0.2,0,0.4,0,0.4c0.2,0,0.2,0,0.4,0s0.2-0.2,0.4-0.4s0.2-0.2,0.2-0.2
		c1.4,0.4,3,0.6,4.5,0.2c1.6-0.4,3-0.6,4.1-0.6c-0.6-0.4-1.2-0.6-1.8-0.6s-1.2,0-2,0.2c-0.6,0-1.4,0.2-2,0.2c-0.8,0-1.4-0.2-2-0.6
		c0,0.8-0.2,1-0.6,0.8c-0.4-0.2-0.8-0.4-1-0.6c-0.2,0.4-0.6,0.6-1.2,0.6c-0.4,0-1,0-1.4,0c-0.4,0-0.8,0-1.4,0
		c-0.4,0-0.8,0.2-0.8,0.6c-0.2-0.2-0.4-0.4-0.6-0.4c-0.2,0-0.2-0.4-0.2-0.6c3.7-0.2,7.3-0.6,10.2-0.8c3.2-0.2,6.3-0.2,9.9,0
		c0.2-1.2,0.2-2.6,0.4-3.7c0-1.2,0.4-2.2,0.8-3c-0.2,1.2-0.2,2.6-0.4,3.5c0,1.2-0.2,2.2-0.4,3.2c0.4,0.2,0.6,0.2,0.8-0.2
		s0.2-0.8,0.4-1.4c0-0.6,0-1,0.2-1.6c0-0.6,0.2-0.8,0.4-1c0.2,0,0.2,0,0.2,0.4c0,0.4,0,0.6,0.2,0.6c0-0.4,0-0.8,0.2-1
		c0.2-0.2,0.2-0.6,0.2-1c-0.4,0-0.6-0.2-0.4-0.8s0.2-0.6,0.4,0c0-1.6,0.2-3,0.4-4.3c0.2-1.4,0.4-2.8,0.6-3.9c0,0,0.4,0.2,0.8,0.8
		c0.2-2.4,0.6-4.1,0.8-5.7s0.4-3.3,0.4-5.5h0.4c0-0.4,0-0.6-0.2-0.8c0-0.2,0-0.4,0-0.8c0.2,0,0.4-0.6,0.4-1.4c0.2-0.8,0.2-1.4,0-1.8
		c0.2,0,0.2-0.2,0.4-0.4c0-0.2,0.2-0.2,0.4-0.4c0-1.2,0.2-2.4,0.6-3.3c0.4-1.2,0.6-2.2,1-3c0.2-0.6,0.2-1.2,0.2-1.8
		c0-0.6,0-1.2,0.2-1.8c0.4-1.4,1-2.8,1.6-4.1s0.8-3,0.2-4.7c-0.4,1.2-0.8,2.4-1.2,3.3c-0.4,1.2-1,2.4-1.4,3.7
		c-0.2,0.8-0.4,1.6-0.4,2.4s-0.2,1.6-0.6,2.4c-0.2,0.6-0.2,0.6-0.2,0.4c0-0.2,0,0,0,0.6c0,1.2-0.2,2.6-0.8,3.9s-0.6,2.8,0,3.9
		c-0.4,0-0.6,0-0.6,0.2c-0.4,2.2-0.6,4.5-0.8,7.1c-0.2,2.6-0.4,4.5-0.6,5.9c-0.2-0.2-0.4-0.2-0.4,0s-0.2,0.2-0.2-0.2
		c-0.2-1.2-0.2-2,0-2.2c0.2-0.2,0.4-0.6,0.6-1c-0.2,0.2-0.2,0-0.2-0.2c0-0.4,0-0.6-0.2-1c-0.4,1-0.6,1.8-0.8,2.6c0,0.6,0,1.6,0,2.8
		c-0.4,0.2-0.8,0.8-0.8,1.6c0,0.8-0.2,1.8-0.2,2.6c0,1,0,1.8-0.2,2.6c0,0.8-0.4,1.4-0.6,1.6c0-2,0.2-4.5,0.4-7.1
		c0.2-2.8,0.6-5.3,0.8-7.9c0.2-0.2,0.2-0.4,0.2-0.4c0-0.2,0-0.2,0.2-0.4c0.2-2.6,0.4-4.7,0.8-6.5c0.4-1.8,0.6-3.9,0.8-6.1
		c0.2,0,0.2,0,0.2-0.2c0,0,0,0,0.2,0c0.2-2.4,0.6-4.7,1.2-6.9c0.6-2.4,1.2-4.5,1.8-6.5c-0.8,0.2-1.6,0.4-2.2,0.6
		c-0.6,0.2-1.4,0.4-2.2,0.4c0,0.2,0,0.4-0.2,0.4s-0.2,0.2-0.4,0.4c-1-0.2-1.8-0.2-2.6,0.2c-0.8,0.4-1.4,0.6-2.4,1
		c-0.4,0.2-1,0.2-1.6,0.2s-1.2,0-1.6,0.2c-0.8,0.2-1.6,0.6-2.4,1.2c-1,0.4-1.6,0.8-2.2,0.8c0,0-0.2,0-0.2-0.2c0-0.2,0-0.2-0.2-0.2
		c0,0,0,0.2-0.2,0.2l-0.2,0.2c-0.6,0.4-1.2,0.6-1.6,0.8s-1.2,0.2-1.8,0.4c-1,3-1.8,5.9-2.6,8.9s-1.6,5.9-2.4,8.9
		c0-0.4-0.2-0.6-0.4-0.6c0.2,0.6,0.2,0.8,0,0.6s-0.2-0.2-0.4,0.2c-0.2,0.6-0.2,0.8,0.2,0.6c0.4-0.2,0.4-0.2,0.4,0.2
		c-0.2,0.4-0.4,1-0.6,1.6c-0.2,0.6-0.2,1.4,0,2c-0.2,0-0.2,0-0.4,0.2c0,0.2-0.2,0.2-0.4,0c-0.4,1.4-0.6,2.6-0.4,3.3
		c0,0.8-0.2,1.4-1,2.2c-0.2,0.4-0.2,0.6,0,0.8c0.2,0.2,0.2,0.2,0,0.2s-0.2,0-0.2-0.2c0,0,0-0.2-0.2-0.2c-0.2,0.4-0.2,0.6,0,0.6
		c0.2,0,0.2,0,0.4,0.6c-0.4,0-0.8,0.6-0.8,1.4s0,1.6,0,2.4c-0.2,0-0.4,0.2-0.6,0.6c-0.2,0.4-0.4,0.6-0.6,0.6c0,0.4,0,0.6,0,0.4
		c0-0.2,0.2-0.2,0.4-0.2c-0.2,0.4-0.2,1-0.4,1.6c0,0.6-0.4,0.8-0.8,0.8c0,0.6,0,1-0.2,1.6c-0.2,0.4-0.6,1-0.8,1.4
		c-0.4,0.4-0.6,1-1,1.6S113.9,579.7,113.9,580.5 M155,531c0.2-0.2,0.4-0.6,0.4-1c0-0.4,0-0.8-0.2-1c0,0.4,0,0.8,0,1.2
		C155.2,530.4,155,530.6,155,531 M155.4,550.7c0.4-3.2,1-6.3,1.4-9.5c0.4-3,0.8-6.3,1-9.9h-0.4c-0.4,3-0.8,6.1-1.2,9.7
		C155.6,544.6,155.4,547.8,155.4,550.7 M122.7,533.4c0.4,0,0.8-0.2,1-0.4c0.2-0.4,0.4-0.8,0.6-1.2
		C123.5,532.2,122.9,532.8,122.7,533.4 M154.6,534.9c-0.2,0.2-0.2,0.4-0.2,0.4s0,0-0.2-0.2c0.2,1.4,0.2,2.6,0,3.5
		c-0.2,0.8-0.4,1.8-0.6,3c0.4,0,0.6-0.4,0.8-1.2c0.2-0.8,0.4-1.8,0.4-2.6C154.8,537.1,154.6,535.9,154.6,534.9
		c0-0.6-0.4-1.2-0.8-1.2c0.2,0,0.4,0.2,0.4,0.4C154.2,534.6,154.4,534.8,154.6,534.9 M150.3,542c-0.6,2.4-1,4.9-1.6,7.7
		c-0.6,2.8-1,5.3-1.4,7.7c-0.2,0.8-0.4,1.8-0.4,2.6c0,1,0,1.8,0.2,2.6c1-3.7,1.6-7.5,2.2-11c0.4-3.7,1.2-7.5,2-11.2
		c-0.4,0.2-0.6,0.4-0.6,0.8C150.3,541.5,150.3,541.6,150.3,542 M121.3,543.6c0,0.2,0,0.4,0.2,0.6c0,0,0.2,0.2,0.2,0.4
		c-0.2,0-0.2,0.2-0.2,0.4c0,0.2,0,0.2,0-0.2c0.2-0.2,0.4-0.4,0.6-0.8s0.2-0.6,0-0.6C121.9,543.6,121.7,543.6,121.3,543.6
		 M116.8,548.9c-0.8,0.8-1.4,2-1.6,3.3s-0.6,2.4-1.6,3c0,0.2,0,0.4,0.2,0.6c0,0.2,0,0.6,0,1c-0.2,0-0.2,0.2-0.4,0.4
		c0,0.2-0.2,0.2-0.4,0c0,1,0,1.8-0.2,2.8c-0.2,1-0.4,1.6-0.8,2c0,0.4,0,0.8,0,0.8c0,0.2,0.2,0.4,0.2,0.8c-0.2,0.2-0.4,0.4-0.6,0.2
		s-0.2-0.2-0.2,0.2h0.2c0,0,0,0-0.2,0c0.2,0.2,0.4,0.4,0.4,0.4s-0.2,0.2-0.2,0.8c0,0.4-0.2,1-0.4,1.6c-0.2,0.8-0.2,1.4-0.4,2.2
		c-0.2,0.8-0.4,1.4-0.6,2.2c-0.2,0.6-0.6,1-0.8,1.2c0.2,0.2,0.4,0.2,0.6,0.2s0.4,0.2,0.4,0.4c-0.4,0-0.6,0.4-0.8,1.2
		c-0.2,0.8,0.2,1,0.8,1c0-0.6,0-1-0.2-1c0.4-0.4,0.8-1.2,1-2.2c0.2-1,0.4-2.2,0.6-3.3c0.4-1,0.8-2.2,0.8-3.2c0-1,0.4-2,0.8-2.8
		c0.2-1.4,0.4-2.8,0.8-3.7c0.4-1,0.6-2.2,1-3.2c0.4-1,0.6-2,1-3C116.2,551.3,116.6,550.1,116.8,548.9c0.4-0.4,0.8-1.2,1.2-2
		c0.4-1,0.4-1.6,0.4-1.8c-0.2,0.8-0.6,1.4-1,1.8S116.8,548.2,116.8,548.9 M119.8,550.3c0.2-0.8,0.6-1.4,0.8-2.2
		c0.2-0.8,0.4-1.4,0.8-2c-0.2,0-0.4-0.2,0-0.4c0.2-0.4,0.2-0.4,0-0.4c-0.4,1-0.8,1.8-1,2.6C120.2,548.7,119.8,549.3,119.8,550.3
		 M148.9,562.3c0.4-2.4,0.8-4.7,1.4-7.3c0.6-2.6,0.8-4.9,0.6-7.3c-0.2,2.4-0.6,4.9-1.2,7.5C148.9,557.8,148.7,560.2,148.9,562.3
		 M115.8,555c0.2-0.2,0.4-0.4,0.6-0.8c0.2-0.4,0.2-0.8,0-1.2c-0.2,0.2-0.2,0.6-0.4,1C116,554.5,116,554.9,115.8,555 M120.2,555.8
		c0-0.4,0-1,0.4-1.4c0.4-0.6,0.2-0.8-0.2-1c0,0.6,0,1-0.2,1.4C119.8,554.9,119.8,555.2,120.2,555.8 M144.8,557.8
		c-0.2-0.4-0.2-1,0.2-1.6c0.2-0.6,0.2-1-0.2-1.2c0,0.4,0,1-0.2,1.6C144.2,557.4,144.4,557.6,144.8,557.8 M150.5,558.8
		c0.2,0,0.2-0.2,0.2-0.6c0-0.4,0-0.4,0.4-0.4c0-0.2,0-0.4,0-0.6c0-0.2,0-0.4-0.2-0.6c0,0.4,0,0.8-0.2,1
		C150.3,558,150.3,558.4,150.5,558.8 M115,561.5c0.2,0,0.2,0,0.2,0s0,0,0.2,0c0.2-0.6,0.4-1.2,0.6-1.4c-0.4-0.4-0.6-0.4-0.6,0.2
		C115.4,561,115.2,561.4,115,561.5 M149.5,563.9c0.2-0.4,0.4-1,0.6-1.8s0.2-1.4,0-1.8c0,0.8-0.2,1.4-0.4,2S149.3,563.5,149.5,563.9
		 M113.3,567.9c1,0,1.4-0.8,1.6-2.2s0.2-2.4,0.4-3.2c-0.4,1.2-0.8,1.8-1.2,2c0.4,0.4,0.6,1,0.2,1.8
		C113.9,567.3,113.7,567.7,113.3,567.9 M147.3,567.5c0-0.4,0.2-0.6,0-0.8c0-0.2,0-0.2,0-0.4c0.2,0,0.4-0.2,0.4-0.6
		c-0.2,0-0.6,0.2-0.6,0.8C146.8,567.3,147,567.5,147.3,567.5 M148.3,572.2c0.2-0.8,0.6-1.6,0.8-2.6c0.2-1,0.6-1.8,0.8-2.8
		c-0.4,0.8-0.8,1.6-1.2,2.4C148.3,570.2,148.1,571.2,148.3,572.2 M145.8,571.6c0.2,0.2,0.4,0,0.4-0.4c0-0.4,0-0.8-0.2-1
		C145.8,570.6,145.8,571,145.8,571.6 M149.9,571.2c0,0.8,0,1.4-0.4,1.8c-0.4,0.4-0.4,0.8,0.2,1.4c0.2-0.8,0.4-1.4,0.6-2.2
		c0.2-0.6,0.6-1.2,1-1.4C150.7,570.8,150.3,570.8,149.9,571.2 M111.9,573.2c0.2,0,0.4-0.2,0.4-0.6c0-0.4,0-0.8,0.2-1
		C112.1,571.8,111.9,572.4,111.9,573.2 M148.3,575.3c0,0.2,0,0.6,0,1c0,0.4,0,0.6,0.4,0.4c0-0.4,0.2-0.8,0.6-1.2s0.4-0.8-0.2-1
		c0,0.4,0,0.6-0.2,0.8C148.7,575.5,148.5,575.5,148.3,575.3 M147,578.1c0.4,0,0.6-0.4,0.8-1c0.2-0.6,0.2-1,0-1.6
		c-0.2,0.4-0.4,0.8-0.6,1.2C147,577.3,146.8,577.7,147,578.1 M144.2,578.5c0.2,0,0.6-0.4,0.6-1c0.2-0.6,0.2-1,0-1.2
		C144.6,576.7,144.4,577.5,144.2,578.5 M155.2,579.9c0.2,0.2,0.2,0.4,0.2,0.6c0.6,0,1-0.2,1-0.8c0-0.2-0.2-0.2-0.6-0.2
		S155.2,579.7,155.2,579.9 M119.8,584.8c0.4,0,0.8,0.2,1.6,0c0.6,0,1.2-0.2,1.4-0.6c-0.4,0.2-1,0.2-1.6,0S120.2,584.2,119.8,584.8
		 M131.6,585c-0.8,0-1.4,0-2.2-0.2c-0.8-0.2-1.4-0.2-1.8,0.2c0.4,0,1.2,0.2,2,0.4C130.6,585.6,131.4,585.4,131.6,585 M152.5,588.3
		c0.4,0,0.8-0.4,0.8-1.2s0-1.2-0.4-1.6c0,0.6-0.2,1-0.4,1.2C152.1,587.4,152.1,587.8,152.5,588.3 M96.5,599.6c0.4-1.4,1-2.8,1.4-4.5
		c0.4-1.6,1-3.3,1.4-4.7c0.2,0,0.4,0,0.4-0.4s0-0.4-0.2-0.2c-0.6,1.4-1.2,3-1.8,4.5C96.9,596,96.5,597.8,96.5,599.6 M151.7,591.9
		c0-0.4,0.2-0.8,0.2-1c0-0.4,0.2-0.8,0.2-1h-0.4c0,0.4,0,0.8-0.2,1.2C151.3,591.3,151.3,591.5,151.7,591.9 M152.1,605.7
		c0.2,0.8,0,1.4-0.2,1.6c-0.4,0.2-0.6,0.8-0.6,1.6c0.8,0.6,1.6,0.8,2.2,0.2c0.6-0.4,1-1.2,1.6-2.4c0.4-1,0.8-2.4,1-3.7
		c0.2-1.6,0.4-3,0.6-4.3c0-1.4,0.2-2.8,0.2-3.9s0-2.2-0.2-2.6c-0.6,2.6-1.2,5.1-1.6,7.7C154.2,602.1,153.5,604.1,152.1,605.7
		 M153.5,598.2c0.4-0.4,0.8-1,0.8-2c0.2-1,0.2-1.8,0.2-2.4c-0.2,0.8-0.4,1.4-0.8,2C153.7,596.4,153.5,597.2,153.5,598.2 M99.3,597.6
		c0.2-0.2,0.6-0.6,0.8-1.2c0.2-0.6,0.4-1,0.2-1.4c0,0.2-0.2,0.4-0.4,0.2c0.2,0.6,0.2,1,0,1.2C99.5,596.6,99.3,597,99.3,597.6
		 M151.7,597.6c0.2-0.2,0.4-0.4,0.6-0.8c0.2-0.4,0.2-0.6,0-1c0,0.2-0.2,0.6-0.4,1C151.5,597,151.5,597.4,151.7,597.6 M99.7,603.3
		c0.4-0.8,0.8-1.8,1.2-3.2c0.4-1.4,0.6-2.4,0.6-2.8c-0.4,0.8-1,1.8-1.4,3C99.5,601.5,99.5,602.5,99.7,603.3 M150.3,602.1
		c0.2,0,0.4,0.2,0.6,0.6c0.4-0.2,0.8-0.8,1-1.6c0.2-0.8,0.2-1.4,0.2-1.8c-0.2,0.6-0.4,1-1,1.2C150.7,601,150.5,601.5,150.3,602.1
		 M94.5,613c0.2-0.2,0.4-0.4,0.8-0.6c0.4-0.2,0.6-0.4,0.8-0.8c-0.2,0-0.4-0.4-0.4-0.6h-0.8c0,0.2-0.2,0.6-0.4,1.2
		C94.3,612.6,94.3,612.8,94.5,613z M188.3,610.8c-1.2,1-2.4,1.2-3.5,1.2c-1.2-0.2-2.4-0.6-3.9-1.2c-1.6-1.6-3-3-4.5-4.1
		c-1.4-1.2-2.8-2.8-3.7-4.9c0.2-1.8-0.2-3.2-1.2-4.1s-1.6-1.8-2-2.6c0.4-0.8,0.8-1.2,0.8-1.6c0-0.2,0.4-0.4,0.8-0.6
		c-0.4-0.2-1-0.2-1.6-0.2s-1.2-0.2-1.2-0.4c0-1,0.2-2.2,0.2-3.3c0-1.2,0-2.2-0.2-3c0.4-0.8,0.8-1.4,1.2-2s0.6-1.4,0.4-2.4
		c0.4-0.4,0.8-0.4,1.2-0.4c0.4,0.2,0.8,0,1.2-0.4c0-0.6-0.4-0.8-0.8-0.4c-0.6,0.4-0.8,0.4-1.2,0.2c0-0.4,0.2-0.8,0.6-1
		c0.4-0.4,0.2-0.6-0.4-0.8c0-0.2,0.2-0.2,0.4-0.2c0.2,0,0.4,0,0.6,0c0.2-0.8,0.2-1.2,0.2-1.4s0.2-0.4,1-1c0-0.6-0.2-1-0.6-1.4
		c0.2-0.2,0.8-0.4,1.4-0.4c-0.2-0.2-0.4-0.2-0.4-0.2c-0.2,0-0.2,0-0.2-0.2c0.8-1.2,1.4-2.4,2.2-3.5c0.8-1.2,1.8-2,3-2.8
		c0-1.4,0.8-2.4,2.2-2.8c0.8-1.2,1.4-2.4,2.2-3.3c0.6-1.2,1.8-2,3.5-2.4c0,0.6-0.2,0.8-0.8,1c-0.6,0.2-0.8,0.4-0.8,1
		c1.8-1,3.5-2.2,5.3-3.2c1.8-1,3.7-2,5.7-2.8s4.3-1.4,6.5-2c2.4-0.6,4.9-0.8,7.7-0.6c-1.2-1.2-2.8-1.8-4.5-2c-1.8-0.2-3.5,0-5.3,0.4
		c-1.8,0.4-3.5,1-5.1,1.8c-1.6,0.8-2.8,1.4-3.7,2c-1.4,1.6-3,2.8-4.9,3.7c-0.4,0-0.6-0.2-0.4-0.4c0-0.2,0.2-0.4,0.4-0.6
		c0.2-0.2,0.6-0.4,0.8-0.6c0.4-0.2,0.6-0.2,1-0.2c1-1.2,2.6-2.6,4.7-4.1c2.2-1.4,4.5-2.4,6.9-2.8c3.3-0.8,6.1-0.6,8.3,0.2
		c2.2,0.8,4.1,2.2,5.7,3.7c0.2,1,0.8,1.6,1.2,2.4c0.6,0.6,1.2,1.2,2,1.8c0.6,0.6,1.2,1.2,1.8,1.8c0.6,0.6,1,1.4,1,2.4
		c0,0,0.4,0.2,1,0.4c0.8,2.4,1,4.9,1,7.3s0,4.7-0.2,7.1c-0.6,0-0.8,0.2-0.4,0.8c0.2,0.6,0.2,1,0.2,1.6c0,1.4-0.4,2.8-0.8,4.3
		c-0.4,1.6-1,3-1.8,4.5c-0.8,1.4-1.6,2.8-2.6,4.1c-1,1.4-2,2.6-3,3.3v1c-1.2,0.8-2.6,1.8-3.7,3.2c-1.2,1.4-2.8,2.6-4.5,3.5
		c-0.4,0.2-1,0.4-1.6,0.6c-0.6,0-1,0.4-1.6,0.6c-1,0.8-2,1.6-2.8,2.6c-0.8,1-1.8,2-2.8,2.6c-1,0.8-2.2,1.2-3.3,1.4
		C191.5,612,189.9,611.6,188.3,610.8 M209.8,561c0.4-0.4,0.4-1,0-1.4c-0.4-0.6-0.8-0.6-1-0.4c0.2,0,0.4,0.2,0.4,0.4
		c0,0.2,0,0.4,0,0.6s0,0.4,0,0.6C209.2,560.8,209.4,561,209.8,561 M193.7,564.9c-2.2,1.6-4.3,3.2-6.3,4.9c-2,1.8-3,3.5-3.5,5.7
		c-0.6,0.4-1,0.8-1.2,1.4c-0.2,0.6,0,1,0.6,1.2c0.8-0.8,1.4-1.6,2-2.4s1.4-1.6,2.6-2c-0.2,0-0.4,0-0.4-0.2s0-0.2,0-0.4
		c0.8-0.8,1.6-1.4,2-2.2c0.6-0.8,1-1.4,1.6-2.2c0.6-0.6,1.2-1.4,2-2c0.8-0.6,1.6-1.2,2.8-1.6c-0.2-0.2-0.2-0.6,0-0.8
		c0.4-0.2,0.6-0.6,1-0.8c0.4-0.2,0.6-0.4,0.8-0.6c0.2-0.2,0.2-0.4-0.2-0.6c-0.8,0.2-1.6,0.6-2.2,1
		C194.6,564.1,194,564.5,193.7,564.9 M182.8,582c-1.4,1.2-2.2,3-2.4,5.1c-0.2,2.2,0.2,4.3,1,6.5c1,2.2,2.4,3.7,4.5,5.1
		c2.2,1.4,4.7,1.6,7.9,0.6c2-1.4,3.9-3.2,5.9-5.5c2-2.2,3.3-4.5,4.5-6.7c0.8-1.6,1.4-3.3,2-5.5s1-4.3,1.2-6.5s0.2-4.5-0.2-6.7
		s-1-3.9-2.2-5.5c-2.4-0.2-4.3,0-5.9,0.8c-1.6,0.8-3,1.6-4.1,2.8c-1.2,1.2-2.4,2.4-3.3,3.5c-1,1.2-2.4,2.4-3.5,3.2
		c-1,2.2-2.2,3.7-3.9,4.9c0,0.2,0,0.4,0,0.6c0,0.2-0.2,0.2-0.2,0.4l-0.2,0.2c0,0,0,0.2,0.2,0.2c-0.2,0.2-0.6,0.4-1,0.6
		c-0.4,0.2-0.8,0.4-1,0.8C182.4,581.1,182.8,581.3,182.8,582 M216.1,578.5c1-2,1.4-4.3,1-7.3c-0.2-3-0.6-5.5-1.2-7.7
		c-0.2,0-0.4,0-0.6-0.2c0,0-0.2-0.2-0.4-0.2c0,1,0.2,2.4,0.2,3.5c0,1.4,0,2.8,0,4.1s0,2.8,0.2,4.1
		C215.5,576.3,215.7,577.3,216.1,578.5 M179.9,567.5c0.4,0,0.8,0,1.2,0s0.4-0.2,0.4-0.8c-0.2,0-0.4,0-0.6,0s-0.4,0-0.6,0
		c0.2,0.4,0.2,0.6-0.2,0.6C180.1,567.1,179.9,567.3,179.9,567.5 M220.6,575.1c-0.6-1-0.8-2.2-0.6-3.2c0.2-1.2,0-2-0.6-2.4
		c-0.2,0-0.2,0-0.4-0.2l-0.2-0.2c0,1.2-0.2,3-0.6,5.1c-0.4,2.2-0.4,4.1,0.2,5.7c0.4-0.6,0.8-1.6,0.8-2.8
		C219.5,576.1,219.9,575.3,220.6,575.1 M174.1,586.6c0.6,0,0.8,0.2,0.8,0.2s0.2,0,0.8-0.2c0.4-2,1-3.7,1.4-5.1
		c0.4-1.4,0.6-2.8,0-4.3c-0.2,0.8-0.4,1.6-0.8,2.4s-0.8,1.4-1.2,2.2c-0.4,0.8-0.8,1.6-1,2.4C173.9,584.8,173.9,585.8,174.1,586.6
		 M211.8,586c0.2-0.8,0.4-1.4,0.8-2c0.4-0.6,0.4-1,0-1.6c-0.4,0.6-0.8,1-1.2,1.6C211.2,584.6,211.2,585.2,211.8,586 M215.5,589.1
		c-0.8,0.4-1.2,0.8-1.4,1.6c0,0.6-0.4,1.4-0.6,2c-0.4,0.4-0.8,1-1.4,1.6c-0.6,0.6-1.2,1.2-1.8,1.8c-0.6,0.6-1,1.2-1.4,1.8
		c-0.4,0.6-0.6,1-0.6,1.4c0.2-0.4,0.6-0.8,1-1c0.6-0.2,1-0.4,1.6-0.6c0.4-1,1-2,1.8-3c0.8-1,1.6-1.8,2.2-2.8c0.6-1,1.4-1.8,1.8-2.6
		c0.6-0.8,0.8-1.8,0.8-2.6C216.3,587,215.5,587.8,215.5,589.1 M174.1,594.3c0.2-0.2,0.4-0.4,0.4-0.8s0-0.8-0.2-1.2
		c0-0.4-0.2-0.8-0.2-1.2c0-0.4,0-0.8,0.2-0.8c-0.2,0-0.4-0.2-0.4-0.4s-0.2-0.2-0.6-0.2c-0.2,1-0.4,1.8-0.2,2.6
		C173.2,593.1,173.6,593.7,174.1,594.3 M203.7,593.3c0,0.2,0,0.4,0,0.8c0,0.4,0,0.6,0.2,0.6c0.2-0.2,0.4-0.4,0.6-0.6
		c0.2,0,0.6-0.2,1-0.4c0-0.4,0-0.8,0-1.2c0-0.4-0.2-0.6-0.8-0.6c0,0-0.2,0.2,0,0.4c0,0.2,0,0.4,0,0.4c0,0.2,0,0.2-0.2,0.4
		C204.5,593.5,204.3,593.5,203.7,593.3 M206.9,596.4c0.8,0,1.2-0.4,1.4-1c0.2-0.6,0.6-1,1.6-1c-0.4-0.2-0.4-0.4-0.4-0.6
		c0.2-0.2,0.4-0.4,0.6-0.6s0.4-0.4,0.4-0.6c0-0.2-0.2-0.4-0.6-0.6c-0.8,0.6-1.4,1.2-1.8,2C207.6,594.8,207.1,595.4,206.9,596.4
		 M203.7,598.6c0.4,0,0.8-0.2,0.8-0.4c0-0.4,0.4-0.2,1,0v-0.6c0-0.2,0-0.2-0.2-0.2c-0.2,0.2-0.6,0.4-1.2,0.4
		C203.5,597.8,203.5,598,203.7,598.6 M186.2,602.5c0.4,0,0.8,0.2,1,0.2s0.6,0,1.2-0.2c0-0.6-0.4-1-1-0.8
		C186.8,601.7,186.4,602.1,186.2,602.5 M189.7,610.2c1-0.2,1.4,0,1,0.6c1.8-0.4,3.2-0.8,4.1-1.2c1-0.4,1.8-1.2,2.4-2.4
		c-0.8,0.2-1.4,0.4-2.2,0.4c-0.8,0.2-1.6,0.2-2.2,0.4c-0.6,0.2-1.4,0.4-2,0.6C190.5,609.2,189.9,609.6,189.7,610.2 M186.2,610
		c-1,0-2,0-2.8-0.2c-0.2,0.4-0.2,0.8,0.2,1c0.2,0.2,0.6,0.2,1,0.2c0.4,0,0.8,0,1.2-0.2C186,610.6,186.2,610.2,186.2,610z M233.7,570
		c0,0,0-0.2-0.2,0c-0.2,0-0.2,0-0.2-0.2c-0.2-0.2-0.4-0.2-0.4,0c-0.2,0.2-0.4,0.4-0.6,0.2c0-0.4,0-0.8,0.2-0.8s0.6,0,1,0
		c0-0.2-0.2-0.4-0.4-0.4c-0.4,0-0.6,0-0.8-0.2c0.2-0.2,0.4-0.4,0.4-0.6c0-0.2,0.2-0.4,0.4-0.6c0.4,0,0.8,0,0.8,0.2
		c0,0.2,0.4,0.2,0.8-0.2c-0.6-0.2-0.8-0.4-0.4-0.4c0.4-0.2,0.6-0.4,0.6-0.8c-0.8,0.2-1.2,0.6-1.4,1c-0.4-0.2-0.4-0.4-0.2-0.6
		s0.2-0.4,0.2-0.6c0.2,0,0.2,0,0.2,0.2c0,0,0,0.2,0.2,0.2c0.2-0.2,0.2-0.4,0-0.6c-0.2-0.2-0.2-0.4-0.2-0.6c0.8,0.4,1.4,0.2,2-0.6
		c-0.2-0.2-0.4-0.2-0.8,0c-0.4,0.2-0.8,0.2-1,0c0.6-0.4,0.8-1,0.8-1.6s0.4-1,1-1.2c-0.2-0.8,0-1.8,0.6-2.8c0.6-1,1.2-2,1.8-2.8
		c0-0.2,0-0.4-0.2-0.4c0,0-0.2-0.2-0.2-0.4c0.4-0.4,0.8-0.8,1.2-1.6c0.4-0.6,0.6-1.2,1-1.8c0.4-0.6,0.8-1,1.4-1.4
		c0.6-0.4,1.2-0.4,2-0.2c0.2-0.2,0.4-0.2,0.8-0.2c0.4,0,0.6,0,0.8,0c0.2,0.6,0.4,1.2,0.4,2s0,1.4,0,2.2c0,0.8-0.2,1.4-0.2,2.2
		c-0.2,0.8-0.2,1.4-0.4,1.8c1-0.6,2.2-1.2,3.2-2c1-0.8,2-1.6,3-2.4c1-0.8,2.2-1.6,3.3-2.2c1.2-0.6,2.6-1,4.1-1.4c1-0.2,2-0.4,3-0.8
		c1-0.4,2.2-0.6,3.3-0.4c0.4,0.2,0.8,0.6,1,1.2c0.2,0.6,0,1.2-0.8,1.4c0.4-0.6,0.4-1-0.4-1.6c-0.6-0.4-1.4-0.4-2,0.2
		c0.4,0.2,0.6,0.6,0.8,0.8c0.2,1.2,0,2-0.4,2.6c-0.4,0.6-0.6,1.4-0.4,2.6c0.4,0.2,0.6,0.4,0.4,1c-0.2,0.4,0,0.8,0.4,1
		c-1.4,4.1-3.2,7.9-5.3,11c1.8-0.8,3.7-1.2,6.1-1.2c2.4-0.2,4.1,0.4,5.7,1.4c0.4,0.4,0.6,0.8,0.6,1.2c0,0.4,0.4,0.6,1,0.8
		c0.6,1.6,1,3.2,1.2,4.5c0.2,1.4,0.2,3,0,4.3c0,1.6-0.2,3-0.6,4.7c-0.2,1.6-0.6,3.3-0.6,5.3c-0.2,0.2-0.4,0.2-0.4,0
		c0-0.2-0.2-0.2-0.4-0.4c-4.1,10.2-12,17.3-23.8,21.3c0,0.4,0.2,0.6,0.4,0.6s0.4,0.4,0.4,0.8c1.2,0.4,2.4,0.6,3.5,0.6
		c1,0,2.2-0.4,3.2-0.8c1-0.4,2-0.8,2.8-1.6c1-0.6,1.8-1.2,2.6-1.8c0.6-0.4,1-0.8,1.6-1.6c0.4-0.6,1-1.4,1.4-2
		c0.4-0.4,0.8-0.8,1.2-1.2c0.4-0.2,0.8-0.6,1.2-1c0.8-0.8,1.2-1.6,1.6-2.4c0.4-1,1-1.6,1.6-2.2c0.4-1.6,1-3.2,1.6-4.7s1.2-2.8,2-3.9
		c-0.2,1-0.6,2.2-0.8,3.2c-0.2,1-0.8,1.8-1.4,2.6c0,1-0.2,2.2-0.8,3c-0.6,1-1.2,2-2,3c0,0,0,0.2,0,0.4c0,0.2,0,0.4,0,0.4
		c0,0.2,0,0.2-0.2,0.2c-0.2,0-0.2,0-0.2,0c-0.2,0.2-0.4,0.4-0.6,0.8c0,0.4-0.2,0.6-0.4,0.8c-0.2,0.4-0.6,0.8-1,1.2
		c-0.6,0.6-1,1-1.4,1.4c-0.2,0.2-0.6,0.4-0.8,0.4c-0.4,0.2-0.4,0.4-0.4,0.8c-1,0.6-2,1.2-3,2c-1.2,0.8-2.4,1.6-3.7,2.2
		c-1.4,0.6-2.6,1-3.9,1c-1.4,0-2.8-0.4-4.1-1.2c0.2-0.6,0-0.8-0.4-1c-0.4,0-0.6-0.2-0.6-0.8c-1,0.2-2,0.4-3.2,0.6
		c-1.2,0.2-2.2,0.4-3.3,0.4c-1.2,0-2.2,0-3.2-0.2c-1-0.2-1.8-0.8-2.4-1.4c0.2,0,0.4,0,0.4,0c0-0.2,0.2-0.2,0.4-0.2
		c-0.2-0.6-0.6-1-1.6-1c-0.2,0-0.2,0.2,0,0.6c0.2,0.2,0.2,0.4,0,0.4c-0.2,0-0.4,0-0.4-0.2c0,0-0.2-0.2-0.4-0.2c-0.6,0.4-1,1-1.2,1.8
		c-0.2,0.8-1,1.2-2,1.2c0-0.4,0.2-0.8,0.2-1.2s0-0.6-0.6-0.8c0.2-0.8,0.4-1.4,0.4-2s0-1.4,0-2.2c0-0.6,0-1.2-0.2-1.8
		c-0.2-0.6-0.4-1.2-0.6-1.8c0-1,0-2,0.2-3c0.2-1,0.4-2.2,0.6-3.2c0-0.2,0.2-0.8,0.2-1.8c0-0.8,0.4-1.6,0.8-2.2
		c-0.4-0.4-0.6-0.8-0.6-1.6c0-0.6,0-1.2,0-1.6c0-0.6,0.2-1.2,0-1.8c0-0.6,0.2-1.2,0.4-1.8c0,0,0-0.2-0.2-0.2c-0.2,0-0.4,0-0.4,0
		c0.2-0.2,0.2-0.6,0.2-1c0-0.4,0-0.8,0-1c0.2,0,0.4,0,0.6,0c0.2,0,0.4-0.2,0.4-0.4c-0.2-0.2-0.4-0.2-0.4,0s-0.2,0.4-0.6,0.2
		c0.2-0.4,0.4-0.8,0.4-1c0-0.2,0-0.6-0.2-1.2c0.4,0,0.4,0.2,0.4,0.8c0-1,0-1.8-0.2-2.4s0.2-1.4,0.8-2.2c0-0.2,0-0.2-0.2,0
		c-0.2,0.2-0.2,0.2-0.4,0c0-1.2,0.2-2.4,0.8-3.3c0.6-1,0.6-2,0-2.6c1-0.4,1.4-0.8,1.8-1.2C232.7,571.4,233.1,570.8,233.7,570
		 M258.7,554.5c0.2-0.2,0-0.2-0.4-0.4c-0.6,0-0.8,0-0.8,0.2c0.2,0,0.4,0,0.6,0.2C258.3,554.7,258.5,554.7,258.7,554.5 M258.1,555.4
		h-1.4c0,0.2,0.2,0.4,0.6,0.4C257.9,555.8,258.1,555.6,258.1,555.4 M244.1,558.4c0.2-0.2,0.4-0.4,0.4-1c0-0.4,0-0.8-0.4-0.8
		c-0.2,0.2-0.2,0.2-0.2,0.2s0-0.2,0-0.4c0-0.2,0-0.4,0-0.4c0-0.2-0.2-0.2-0.4-0.2c0,0.4,0,1,0,1.6
		C243.5,558,243.7,558.4,244.1,558.4 M254.7,558c0.4,0,0.6,0.2,1,0.4c0.2,0.2,0.6,0.2,1.2,0.4c0.2-0.2,0.4-0.4,0.2-0.6
		c-0.2-0.2-0.2-0.4-0.2-0.8c-0.4-0.2-0.8-0.2-1.2,0C255.1,557.6,254.9,557.8,254.7,558 M255.9,570.4c-0.4,0.2-0.6,0.4-0.4,0.4
		s0.2,0,0.4-0.2c0.2-0.2,0.4-0.2,0.6-0.4c0.2-0.2,0.4-0.2,0.4-0.4c0.4-0.4,0.6-0.8,1-1.4c0.2-0.6,0.6-1.2,1-1.8
		c0.4-0.6,0.8-1.2,1-1.6c0.4-0.6,0.8-1,1.2-1.2c-0.2-1,0-2,0.4-2.8c0.6-0.8,0.6-1.6,0.2-2.6c-0.8,0.4-1.2,1.2-1.4,2.4
		c-1,0.4-1.4,1-1.4,2c0,1,0,1.8-0.2,2.4c-0.2,0.2-0.4,0.4-0.6,0.8c-0.2,0.4-0.2,0.8-0.4,1.2c-0.2,0.4-0.4,0.8-0.6,1.2
		c-0.2,0.2-0.6,0.4-0.8,0.2c-0.4,0.2-0.6,0.4-0.2,0.8c0.4,0.4,0.2,0.4-0.2,0V570.4 M246.1,562.7c-1,1.4-2,2.8-2.6,4.1
		c-0.6,1.4-0.8,3.2-0.6,4.9c-0.4,0.6-0.6,1.2-0.6,2.2c0,1-0.2,1.6-0.8,2.2c2.6-0.6,4.5-1.8,5.7-3.3c1.4-1.6,2.8-3.2,4.5-4.5
		c0.2-0.8,0.6-1.6,1.2-2.2c0.6-0.6,1-1.2,1.6-1.8c0.6-0.6,1-1.2,1.4-2c0.4-0.8,0.6-1.6,0.6-2.4c-0.8-0.6-1.8-1-2.8-1
		c-1,0-2,0.2-3,0.6c-1,0.4-1.8,0.8-2.8,1.6C247.4,561.7,246.7,562.1,246.1,562.7 M258.1,571.2c2.4-0.6,4.7-0.6,6.7,0
		c2,0.6,3.7,1.2,5.3,2c0-1.2-0.6-2-1.6-2.8c-1-0.6-2.2-1-3.5-1.2c-1.4,0-2.6,0-3.9,0.4C259.7,570,258.7,570.4,258.1,571.2
		 M262.4,575.7c-0.2,0-0.4-0.2-0.4-0.4c-0.2-0.2-0.2-0.4-0.4-0.6c-2,0.2-3.7,0.6-4.9,1c1,0,2-0.2,3.2-0.2S262,575.7,262.4,575.7
		 M251,577.9c2-0.4,3.7-1.2,5.1-2c-1.2,0.2-2.2,0.4-3,0.8C252.4,576.9,251.6,577.3,251,577.9 M255.9,577.3c1.2,0,2.4,0,3.2,0.2
		c1,0.2,1.6,0.6,2.4,1c0.6,0.4,1.2,0.8,1.8,1.4c0.4,0.6,1,1,1.6,1.4c-0.2-0.8-0.4-1.6-0.6-2.2c-0.2-0.6-0.6-1.2-0.8-2
		c-1-0.6-2.2-1-3.5-1C258.1,576.3,256.9,576.7,255.9,577.3 M258.3,592.5c0.6-1.6,1.2-3.3,1.8-5.3s0.6-4.1,0-6.5
		c-0.6-0.4-1.2-0.8-1.6-1.4c-0.4-0.4-1.2-0.8-2-0.8c-1.6-0.2-3-0.2-4.1,0.2c-1.2,0.4-2.4,0.8-3.2,1.4c-1,0.6-1.8,1.2-2.6,2
		c-0.8,0.8-1.6,1.4-2.4,2c-1,0.8-2,1.4-2.8,2c-0.8,0.6-1.6,1.4-2.2,2.2c-0.2,0.6-0.2,1-0.2,1.6c0,0.4,0,1,0,1.6
		c-0.4,1.8-1,3.7-1.6,5.7c-0.6,2-1.2,3.9-1.6,5.9c0.4,0,0.8,0,1,0s0.6,0.2,1,0.2c0,0.8,0.6,1.2,2,1.2c1.2,0,2.2,0,2.8-0.2
		c0.2,0,0.4,0,0.4-0.2c0-0.2,0-0.2-0.2-0.4c0-0.2,0-0.4,0-0.4s0.2-0.2,0.6-0.2c0.6,0.2,0.8,0.4,0.4,0.8c-0.4,0.4-0.4,0.6-0.2,0.8
		c3.7-0.8,6.7-2.4,9.1-4.5C254.3,597.2,256.3,595,258.3,592.5 M235.8,580.1c0.2-0.2,0.2-0.4,0-0.6c-0.2-0.2,0-0.4,0.2-0.8h-0.6
		c0,0.2-0.2,0.4-0.2,0.8C235.2,580.1,235.4,580.3,235.8,580.1 M259.5,592.5c0.2-0.6,0.8-1.4,1.4-2c0.6-0.6,1.2-1.4,1.8-2.2
		c0.6-0.8,1-1.6,1.4-2.4s0.6-1.8,0.4-2.6c-0.2-1.2-0.8-2-1.8-2.8c-0.8-0.8-1.8-1.4-2.6-2c0.8,1,1.4,2,1.4,3.2c0.2,1.2,0.2,2.4,0,3.5
		c-0.2,1.2-0.4,2.4-0.8,3.5C260.3,590.1,259.7,591.5,259.5,592.5 M233.3,586.6c0.4-0.4,0.6-0.8,0.6-1c0-0.2,0.2-0.6,0.6-0.8
		c-0.6,0-0.8-0.2-0.6-0.6c0.2-0.6,0.4-1,0.6-1c-0.4,0-0.8,0-1-0.2c-0.2-0.2-0.4-0.4-0.6-0.4c0.2,0.8,0.2,1.4,0,2.2
		C232.7,585.2,232.9,586,233.3,586.6 M266.4,587c0.4-0.6,0.8-1.4,1.2-2.2s0.4-1.6,0.2-2.4c-0.2,0.8-0.4,1.4-1,2
		C266.4,584.8,266.2,585.6,266.4,587 M268.9,584c0-0.2,0-0.4,0.2-0.6c0.2-0.2,0.2-0.4-0.2-0.6c0,0.2-0.2,0.4-0.2,0.8
		C268.7,583.8,268.7,584,268.9,584 M268.9,585.2c0.2-0.4,0-0.8-0.2-1c-0.2,0.2-0.2,0.4-0.2,0.6C268.5,585,268.7,585,268.9,585.2
		 M264.8,593.9c0.8-0.4,1.2-1,1.6-1.6c0.2-0.8,0.6-1.4,0.6-1.8c-0.4,0.6-0.8,1.2-1.2,1.8C265.4,592.7,265,593.3,264.8,593.9
		 M253.6,601.7c0.8-0.2,1.4-0.6,2-1.2c0.6-0.6,1-1.2,1.4-1.8c-0.8,0.4-1.4,1-2.2,1.6C254.1,600.8,253.7,601.2,253.6,601.7
		 M252.6,605.9c0.8-0.4,1.6-0.8,2.6-1.6c0.8-0.6,1.4-1.2,1.6-1.8c-0.8,0.6-1.4,1.2-2.2,1.6C253.7,604.7,253.2,605.3,252.6,605.9
		 M235.2,604.7c0.2,0.2,0.4,0.2,0.4-0.2c0-0.2,0-0.4,0.2-0.4c0.4,1,1.4,1.6,2.8,1.6c0-0.2,0.2-0.4,0.4-0.4s0.6,0,0.8-0.2
		c0.2,0,0.6,0,0.8-0.2c0.2,0,0.6-0.2,0.6-0.4c-1-0.2-2,0-2.4,0.4c-0.2-0.6-0.8-1-1.6-1.2c-0.8-0.2-1.4-0.6-1.8-1c0,0.6,0,1-0.2,1.2
		C235.2,604.1,235.2,604.3,235.2,604.7 M246.3,606.7c1.2-0.2,2.4-0.8,3.2-1.4c0.8-0.6,1.8-1.2,2.8-1.6c0-0.4,0-0.6-0.2-0.6
		c-1,0.6-2,1.2-2.8,1.8C248,605.5,247.2,606.1,246.3,606.7 M244.1,605.9v0.8c0.4-0.2,0.8-0.4,1-0.4c0.4-0.2,0.6-0.4,0.8-0.8
		c-0.6,0-0.8,0.2-1,0.4S244.5,606.1,244.1,605.9 M229.7,609.4c0.6-0.6,0.8-1,0.6-1.6c-0.2,0-0.4,0-0.4-0.2c0,0-0.2-0.2-0.6-0.2
		c0.4,0.2,0.4,0.6,0.2,0.8C229.3,608.8,229.3,609,229.7,609.4 M243.3,608.1c-0.4,0-0.6,0-0.6,0c0-0.2-0.2-0.2-0.6,0
		c0,0.2,0,0.4,0.6,0.4C242.9,608.2,243.3,608.2,243.3,608.1 M248.8,610c0.8-0.2,1.8-0.6,2.8-1c1-0.4,1.4-0.8,1.4-1.2
		c-0.8,0.2-1.4,0.6-2.2,0.8C250,609,249.2,609.4,248.8,610 M238.2,610c-1,0-1.8-0.4-2.4-1c-0.4-0.6-1.4-0.8-2.6-0.6
		c0,0.2,0.2,0.6,0.6,0.8c0.4,0.4,0.8,0.6,1.4,0.8c0.6,0.2,1,0.2,1.6,0.2C237.4,610.2,237.8,610,238.2,610 M241.3,609.6
		c0.2,0,0.8,0,1.4,0.2c0.6,0,1,0,1-0.6c-0.4,0-1,0.2-1.6,0C241.7,609.2,241.3,609.4,241.3,609.6 M230.1,610.4c0,0.4,0,0.8-0.2,0.8
		c-0.2,0.2-0.4,0.2-0.6,0.4c0.2,0,0.4,0,0.6,0.2c0.2,0.2,0.2,0.2,0.4,0c-0.2-0.2,0-0.6,0.2-0.8c0.4-0.4,0.6-0.6,0.6-0.8
		c-0.2,0-0.4,0-0.4,0C230.7,610.6,230.3,610.6,230.1,610.4 M236.4,610.8c0.4,0.6,1.2,1,2.6,1c1.4,0,2.2-0.2,2.6-0.8
		c-1.2,0-2-0.2-2.6-0.2C238.6,610.8,237.6,610.8,236.4,610.8z M305.8,588.1c-2,0.4-3.9,1-5.7,1.6c-1.8,0.6-3.5,1.2-5.3,2
		c0.8,0.8,1.6,1,2.4,1s1.6,0,2.4,0.2c-0.4,0.8-1,1.2-1.6,1.2c-0.6,0-1.4,0-2-0.2c-0.6,0-1.4,0-2,0.2c-0.6,0.2-1.2,0.8-1.6,1.8
		c0.4,0,0.6-0.2,0.6-0.8c1.2,0.4,2.4,1,3.2,2c0.8,1,1.8,1.6,3.2,1.8c-0.2,0.6-0.8,0.6-1.8,0.2c-1-0.4-1.4-0.8-1.6-1.2
		c-0.2,1,0.2,1.8,1,2.6c0.8,0.8,2,1,3.5,0.8c0-0.4,0-0.6-0.2-0.8c-0.2-0.2-0.4-0.2-0.6-0.4c-0.2,0-0.4-0.2-0.4-0.2s0-0.2,0.2-0.6
		c0.2,0,0.4,0,0.8,0.2c0.4,0.2,0.6,0.2,0.6-0.2c1,0.8,2,1.2,3.2,1.2s2.6,0,3.7-0.2s2.4-0.6,3.5-1c1.2-0.4,2.2-0.6,3-0.8
		c0,1-0.6,2-1.8,2.8s-2.4,1.2-3.5,1.6c0.8,0.2,1.6,0.2,2.4-0.2s1.6-0.8,2.4-1.4c0.8-0.6,1.4-1.2,1.8-2s0.8-1.6,0.8-2.2
		c0-0.2-0.4-0.2-0.8,0c-0.6,0.2-0.8,0.2-1.2,0.2c0-0.6,0.2-1,0.4-1.4c0.4-0.2,0.8-0.4,1.2-0.6c0.6-0.2,1-0.2,1.6-0.4
		c0.6,0,1-0.2,1.4-0.6c0,1.2-0.2,2.4-0.6,3.2c-0.6,1-1,1.8-1.8,2.6c-0.6,0.8-1.2,1.8-2,2.6c-0.6,1-1,2-1.2,3.2c-0.4,0-0.6,0-0.6,0.2
		c0,0.2-0.2,0.2-0.2,0.4c0,0.2-0.2,0.2-0.2,0.4c0,0.2-0.2,0.2-0.6,0.2c0.2,1.2-0.2,2.4-1.2,3c-1,0.8-2.2,1.4-3.2,1.8
		c-1.8-0.2-3.5-0.4-5.3-0.6c-2,0-3.7-0.2-5.7-0.4c-2-0.2-3.7-0.4-5.5-0.8s-3.3-1.2-4.7-2.4c-0.6-1.2-1.4-2.2-2.6-2.8
		c-0.4-1.6-0.8-3-1.4-4.1c-0.4-1.2-1-2.4-1.6-3.3c0.2-2.4,0-4.5-0.4-6.7s-0.4-4.5,0-6.9c0-0.6-0.2-1-0.6-1.4
		c-0.2-0.4-0.4-0.8-0.6-1.2c1.2-2.6,2.8-4.7,4.7-6.5c2-1.8,3.9-3.5,6.3-5.1c0.2,0,0.4-0.2,0.4-0.4s0-0.4,0.2-0.6
		c2-1,3.7-2.6,5.3-4.7c1.6-2,3-3.9,4.5-5.9c1.6-2,3.3-3.3,5.3-4.5c2-1.2,4.5-1.4,7.7-0.6c-0.6,0.4-1.2,0.8-2,0.8s-1.6,0.2-2.4,0.2
		s-1.6,0.2-2.4,0.4c-0.8,0.2-1.2,0.6-1.6,1.4c0.4,0.4,0.8,0.6,1.6,0.6c0.6,0,1.2,0.2,1.4,0.8c0.4-0.4,1-0.6,1.6-0.8
		c0.6-0.2,1.2-0.4,1.8-0.6c0.6-0.2,1-0.6,1.4-0.8s0.8-0.8,0.8-1.6c1,0.2,2,0.2,3.2,0c1.2-0.2,2.2-0.4,3.2-0.8c1-0.2,2.2-0.4,3.2-0.4
		s2,0.6,2.8,1.4c1.6-0.2,2.8-0.2,3.7,0.4s1.8,1.2,2.4,2.2c0.6,1,1,2,1.4,3.2c0.4,1.2,0.6,2.4,1,3.5c-0.2,1.6-0.6,2.8-1.6,3.9
		c-0.8,1-1.8,2.2-2.6,3.2c-1,1-1.8,2.2-2.6,3.5c-0.8,1.2-1.2,2.8-1.4,4.5c-0.8,0-1.4,0-1.8,0.2c-0.6,0.2-1,0.6-1.6,0.6
		c0-0.4,0.2-0.6,0.6-0.8s0.6-0.4,1-0.4c0.4-0.2,0.6-0.4,0.8-0.6c0.2-0.2,0.2-0.6,0.2-1.2c-1.6,0.2-2.8,0.8-3.7,2
		c-1,1.2-2.2,2.2-3.5,2.8c-0.4,0.2-1,0.2-1.6,0.2s-1.2,0-1.6,0.2c-1.6,0.8-3,1.6-4.3,2.6c-1.4,1-2.8,2-4.1,2.6
		c-0.6,0-0.8,0.2-0.4,0.6C306,587.6,306,588,305.8,588.1 M311.1,606.7c-0.6,1-1.6,1.6-2.8,1.8c-1.2,0.2-2.6,0.6-3.7,0.8
		c0,0.4,0.2,0.6,0,0.8c0,0,0,0.4,0,1c3.3-0.2,5.9-1.4,7.3-3.5c-0.2,0.2-0.4,0-0.4-0.2C311.3,607.1,311.1,606.9,311.1,606.7
		 M319,556.4c0.6,0,1.4,0.2,2,0.2c0.8,0,1.2-0.2,1.6-0.8c-1,0-1.6,0-2.4-0.2C319.6,555.4,319.2,555.6,319,556.4 M326.5,556.6
		c0.8,0.8,1.4,1.4,2,2s1.4,1.2,2.4,1.4c0-0.4,0.2-0.8,0.4-1.2c-0.4-0.2-0.8-0.4-1-0.8c-0.2-0.4-0.6-0.6-0.8-0.8
		c0-0.4,0.2-0.6,0.2-0.6s0-0.4-0.2-0.8c-0.2,0.2-0.6,0.2-1,0c-0.4-0.2-0.6-0.2-0.8-0.4c-0.2-0.2-0.6-0.2-0.8,0
		C326.7,555.6,326.7,556,326.5,556.6 M300.8,561.4c1.2-0.4,2.6-1,3.7-1.4c1.2-0.4,2.2-1.2,2.8-2.4c-1.8-0.2-3,0-3.9,1
		C302.6,559.6,301.6,560.6,300.8,561.4 M307.5,564.5c-0.2,0.2-0.6,0.8-1.2,1.4s-1.2,0.8-1.8,0.4c-0.2,0.6-0.6,1-1,1.4
		c-0.4,0.4-0.8,0.8-1.4,1.2c-0.6,0.4-1,0.6-1.4,1s-0.8,0.8-1.2,1.4c0.8,0,1.6-0.2,2.2-0.6c0.6-0.4,1.2-0.6,1.8-1.2s1.2-0.8,1.8-1.2
		c0.6-0.4,1.2-0.6,2-1c-0.2,0.4-0.2,0.8-0.2,0.8c0,0.2,0.2,0.4,0.2,0.8c-1,0.8-2.2,1.4-3.5,2c-1.2,0.6-2.2,1.4-3,2.6
		c0.6,0,1,0.2,1.2,0.6c-0.8,1-1.6,1.8-2.4,2.4s-1.6,1.4-2.4,2.2c2.6,0,4.7-0.4,6.5-1.2c1.8-0.8,3.3-1.6,4.7-2.8
		c1.4-1.2,2.8-2.4,3.9-3.5s2.6-2.4,3.9-3.5c0-0.6,0.2-1,0.4-1.4c0.2-0.4,0.6-0.8,0.8-1c0.2-0.4,0.6-0.6,0.8-1.2
		c0.2-0.4,0.2-1,0.2-1.8c-0.8,0.6-1.4,0.8-2,0.8s-1,0-1.6-0.2c-0.4-0.2-1-0.4-1.6-0.6c-0.6-0.2-1.2-0.2-2,0c1-0.6,2-1,3.2-1
		c1.2-0.2,2.2-0.8,3-1.6c-2.4-0.4-4.3,0-5.9,1C310.1,562.1,308.7,563.3,307.5,564.5 M320.5,564.3c0.8,0.2,1,0.4,0.6,0.8
		c-0.2,0.4-0.2,0.8,0.2,1.2c0.8,0,1-0.2,1-0.8c0-0.6,0.2-1.2,0.6-1.6c-0.4-0.2-0.6-0.4-0.8-0.6c-0.2-0.2-0.4-0.4-0.8-0.4
		c0.2,0.6,0,0.8-0.2,0.8C320.7,563.5,320.5,563.7,320.5,564.3 M329.4,568.1c0.6-0.4,1-1,1.2-1.6c0.2-0.6,0.4-1.4,0.6-2.2h-1
		c0,0.8-0.2,1.4-0.6,2C329.2,566.7,329.2,567.3,329.4,568.1 M307.5,577.5c1.4-0.6,3-1.2,4.3-2c1.4-0.6,2.8-1.4,3.7-2.4
		c1.2-1,2.2-2,3-3.2c0.8-1.2,1.4-2.8,1.6-4.5c-0.2,0-0.4-0.2-0.4-0.4c0-0.2-0.2-0.4-0.6-0.4c-1.6,2.4-3.5,4.5-5.5,6.5
		C311.7,573.6,309.5,575.5,307.5,577.5 M321.1,569.8c0.8,0.4,1.4,0.4,1.8-0.4c0.6-0.8,0.8-1.4,1-2.2c0-0.2,0-0.4-0.2-0.4
		c-0.2,0-0.2-0.2-0.2-0.2c-0.6,0.4-1.2,1-1.6,1.4C321.5,568.6,321.3,569.2,321.1,569.8 M325.5,572.4c0-0.4,0.2-0.8,0.4-1
		c0.2-0.2,0.4-0.6,0.2-1c-0.6,0-1,0.2-1.2,0.8S324.9,572.2,325.5,572.4 M297.5,572.8c0.6,0,1.2,0,1.6-0.2v-1.2
		C298.5,571.4,297.9,572,297.5,572.8 M323.5,574.9c0-0.2,0.4-0.8,0.8-1.4c0.4-0.6,0.4-1.2-0.4-1.4c0,0.4-0.2,0.8-0.6,1.2
		C322.9,574,322.9,574.4,323.5,574.9 M294.1,579.3c0.4,0,1-0.2,1.6-0.4c0.6-0.2,1.2-0.6,1.6-1c0.4-0.4,0.8-0.8,1.2-1.4
		c0.2-0.4,0.4-1,0.2-1.6c-0.4,0.4-0.8,0.6-1.2,0.8c-0.6,0.2-1,0.4-1.6,0.8c-0.4,0.2-0.8,0.6-1.2,1
		C294.3,577.9,294.3,578.7,294.1,579.3 M281.5,581.3c0.6-1,1.4-2,2.2-3c0.8-1,1.4-2,1.6-2.8c-0.8,1-1.6,1.8-2.6,2.8
		C281.9,579.1,281.3,580.1,281.5,581.3 M318.4,577.9c0.4,0.2,0.8,0.2,0.8,0c0.2-0.2,0.4-0.4,0.8-0.2c0-0.2,0-0.4,0-0.6
		c0-0.2,0-0.4-0.2-0.4c-0.2,0.2-0.6,0.4-0.8,0.6C318.8,577.3,318.6,577.7,318.4,577.9 M294.1,580.9c0.4,0.4,0.4,0.8,0.2,1
		c-0.2,0.2-0.6,0.6-1,0.8c1.4,0.2,2.8,0,4.1-0.6c1.4-0.6,2.6-1.2,3.7-1.6c-0.2-0.4-0.6-0.6-1.4-0.6c-0.6,0-1.2,0-1.8,0.2
		c-0.6,0.2-1.4,0.4-2.2,0.4C295.3,580.7,294.7,580.7,294.1,580.9 M301.6,585c0.6,0,1.4-0.2,2.4-0.4c1-0.2,2-0.4,3-0.8
		c1-0.4,1.8-0.8,2.6-1.2c0.6-0.4,1-1,0.8-1.6c-1.4,0.8-2.8,1.4-4.5,1.8C304.2,583.2,302.8,584,301.6,585 M290.4,596.8
		c0.4,0.4,0.8,0.8,1,1.2c0.2,0.4,0.4,0.8,0.8,1c0.2,0.4,0.6,0.6,1,0.8s1,0.4,1.6,0.4c-1-1-1.8-2-2.4-3.2c-0.8-1-1.6-2.2-2.4-3.2
		c0,0.4,0,0.6,0,0.8c0.2,0.2,0.2,0.4,0.4,0.6c0.2,0.2,0.2,0.4,0.2,0.6C290.6,596,290.6,596.4,290.4,596.8 M305.8,602.7
		c0.4,0,0.6,0,1,0c0.4,0,0.4-0.2,0.4-0.4c-0.2-0.2-0.6-0.2-1-0.2C305.8,601.9,305.6,602.1,305.8,602.7 M302,602.9
		c0.8,0.6,1.8,0.8,2.8,0.2c0-0.8-0.4-1.2-1.2-1.2C302.6,602.1,302,602.3,302,602.9 M292.2,606.7c0.4,0,0.8,0,1.2,0
		c0.4,0,0.4-0.2,0.4-0.8c-0.4,0-0.8,0-1,0c-0.2-0.2-0.6-0.2-0.8-0.4c-0.2-0.2-0.4-0.2-0.6-0.2s-0.4,0.2-0.6,0.6
		c0.4,0.2,0.8,0.2,1.2,0C292,605.7,292.2,605.9,292.2,606.7z M388.1,562.9c0.2,1.6,0.2,3-0.2,4.1c-0.4,1.2-0.6,2.6-0.6,4.1
		c-1,3.7-2.2,7.1-3.3,10.4c-1.2,3.2-2.4,6.5-3.3,10c-0.2,0-0.4,0.2-0.4,0.4c0,0.2-0.2,0.2-0.6,0v2c-0.6,0.2-1,0.6-1.2,1.2
		c-0.2,0.4-0.4,1-0.6,1.4c-0.2,0.4-0.4,1-0.6,1.4c-0.2,0.4-0.6,0.8-1.2,1c0,0,0.2,0.2,0.4,0.2c0.2,0,0.2,0.4,0,0.6
		c-0.6,0-1,0.2-1.2,0.6c-0.2,0.4-0.4,0.6-0.4,0.8c-0.4,0-0.6,0-0.6-0.4c-0.8,0.8-1.8,1.6-2.6,2.6c-1,0.8-1.8,1.8-2.4,2.8H368
		c-0.8,0.6-1.8,1-3,1.4c-1.2,0.2-2.4,0.4-3.7,0.4s-2.6,0-3.9-0.2c-1.4-0.2-2.6-0.4-3.5-0.6c0-0.6-0.2-1-0.6-1.2
		c-0.4-0.4-0.8-0.6-1.2-0.8c-0.6-0.2-1-0.4-1.4-0.6c-0.4-0.2-0.8-0.6-1.2-1c-1,0.2-1.8,0.6-2.2,1c0.2,0.4,0.6,0.6,0.8,0.8
		c0.2,0.2,0.6,0.4,0.8,0.6c0,0.2-0.2,0.4-0.4,0.4c-0.4,0-0.6,0-0.8,0c0,0.4,0.4,0.8,1,0.8c0.6,0.2,1,0.4,1.6,0.6
		c-0.2,0.6-0.8,0.8-1.6,1c-0.8,0.2-1.6,0.4-2.2,0.6c0.4,0.4,0.8,0.6,1.2,0.4c0.4,0,0.8,0,1,0.2c-0.4,0.2-0.6,0.4-0.8,0.4
		c-0.2,0-0.2,0.4,0,1c-0.4-0.4-0.6-0.2-0.6,0.2c0,0.6-0.2,0.8-0.4,0.8c-0.2,0.4,0,0.6,0.2,0.6c0.4,0,0.4,0.2,0.2,0.6
		c-0.2,0.2-0.6,0.4-1,0.4c0.4,0.8,0.4,1.4,0.2,1.8c-0.2,0.4-0.4,1.2-0.4,2.2c-0.6,0.2-1,0.2-1.2,0.2s-0.6,0-1-0.2
		c-0.2,0.6,0,0.8,0.4,1c0.6,0,0.8,0.4,1.2,0.6c-0.6,0.8-1,1.4-1,2c-0.2,0.6-0.2,1.2-0.2,2c0,0-0.2,0,0-0.2v-0.2
		c-0.2,1.2-0.6,2.4-1.2,3.5c-0.6,1.2-1,2.2-1.2,3.3c0,0,0,0.2,0.2,0.6c0.2,0.2,0.2,0.4,0.2,0.6c-0.8,1.4-1.4,2.6-2.4,3.9
		c-0.8,1.2-1.4,2.6-2,4.1l-2.4-2.2l0.2-0.2c0,0,0.2,0,0.4-0.2c0.2-1.8,0-3.2-0.8-4.1c-0.4,0.2-0.8,0.4-0.8,0.8
		c-0.2,0.4-0.4,0.4-1,0.4c-0.8,0-1-0.2-1-0.6c0-0.4,0.2-1,0.2-1.4c1,0.2,1.6,0.2,1.8-0.2c0.4-0.4,0.4-0.8,0.4-1.6
		c0-0.6-0.4-1.4-0.6-2c-0.4-0.8-0.8-1.4-1-1.8c0-0.4,0.2-0.8,0.6-0.8c0.4,0,0.6-0.4,0.8-0.6c-0.4-0.6-0.8-1-0.8-1.4
		c-0.2-0.4-0.4-0.8-1-1.2c0.8,0,1.2-0.2,1.6-0.4c-0.2-0.8-0.4-1.8-0.2-3c0.2-1.2,0.2-2.2,0.2-3.3c0-1.2-0.2-2.2-0.4-3.2
		c-0.2-1-0.8-1.8-1.8-2.2c0.4-0.2,0.6-0.6,0.8-1.2c0.2-0.4,0.2-1,0.2-1.4c0-0.4,0-1,0-1.4c0-0.4,0.2-0.8,0.6-1c0-0.2,0-0.4-0.4-0.4
		s-0.4-0.2-0.2-0.4c0.4-0.2,0.6-0.6,0.6-1.2c0-0.6,0.2-1,0.2-1.6s0-1,0-1.6c0-0.4,0.2-0.8,0.8-1c-0.4-0.6-0.8-1.4-0.8-2.4
		c0-1,0.2-1.8,0.6-2.2c0-0.4-0.2-0.6-0.6-0.4c-0.4,0.2-0.6,0.2-0.6,0c0-0.6,0.2-0.8,0.8-0.8c0.4,0,0.8-0.4,0.8-0.8
		c0-0.2-0.2-0.2-0.4-0.2c-0.4,0-0.6,0-0.6-0.2c0.2-1.2,0.6-2,1.4-2.6c0-1.6,0.2-3.2,0.6-5.1c0.4-2,1-3.5,1.6-4.9
		c0.4-2.8,1.2-5.1,2.4-7.3c1.2-2.2,2.2-4.5,3.2-7.5c1-1,1.8-2.2,2.6-3.2c0.8-1,1.8-2,3.2-3c0-1.2,0.4-2.4,1.4-3.3c1-1,1.8-2,2.4-3.2
		c0.4,0,0.8,0,1-0.2c0.2-0.2,0.6-0.2,1-0.2c0.4,0.6,0.6,1.4,0.6,2c0,0.8,0,1.4,0,2.2c0,0.8,0,1.4,0,2s0.2,1.2,0.6,1.6
		c0.8-0.4,1.4-1,2-1.4c0.6-0.6,1.2-0.8,2.2-1.2v1c0-0.4,0-0.8,0.2-0.8s0.4-0.2,0.6-0.2s0.2,0,0.4-0.2c0-0.2,0-0.4-0.4-0.8
		c0.4,0.2,0.8,0.2,0.8,0c0.2-0.2,0.4-0.2,0.8-0.2c0.4-0.2,0.4-0.4,0.2-0.6c-0.2-0.2-0.2-0.4,0-0.6c0.8-0.2,1.8-0.6,2.8-1
		c1-0.4,2-0.6,3-1c1-0.2,2.2-0.4,3.2-0.4s2.2,0.2,3.2,0.6c0,0.6,0.4,1,1,1.2c0.4,0.2,1,0.4,1.6,0.4c0.6,0.2,1.2,0.2,1.6,0.4
		s0.8,0.4,0.8,1c2.2-0.2,3.7,0,4.9,0.8c1.2,0.6,2.2,1.6,2.8,2.8c0,0,0,0.2-0.2,0.2s-0.2,0-0.2,0.2c0.6,0.4,0.8,1,0.6,1.8
		C387.5,562.1,387.5,562.7,388.1,562.9 M345.6,577.7c0.2-0.4,0.6-0.8,1-1.6c0.4-0.6,0.4-1.2-0.2-1.6c0,0.2-0.2,0.6-0.4,0.8
		c-0.2,0.2-0.4,0.6-0.6,0.8c-0.2,0.2-0.2,0.6-0.2,0.8C345,577.3,345.2,577.5,345.6,577.7 M345.6,564.5c-0.2,0.4-0.6,1-1,1.4
		c-0.6,0.4-0.6,1,0,1.6c0-0.2,0.2-0.6,0.4-0.8s0.6-0.4,0.8-0.8c0.2-0.2,0.4-0.6,0.4-0.8C346,564.9,345.8,564.7,345.6,564.5
		 M344,588.5c-0.2,1.4-0.6,2.4-1,3c-0.4,0.6-0.2,1.6,0.4,2.8c1,0,1.6-0.6,1.6-1.6c-0.4-0.8-0.6-1.4-0.4-2.4c0.2-0.8,0.4-1.4,0.4-2
		c-0.2,0.2-0.4,0.4-0.4,0.4C344.4,588.7,344.2,588.7,344,588.5 M342.6,595c-0.2,0.4-0.4,0.8-0.6,1.6c-0.2,0.6,0,1.2,0.6,1.2
		c0.2-0.2,0.4-0.4,0.6-0.6c0.2-0.2,0.4-0.6,0.6-0.8c0-0.2,0-0.6,0-0.8C343.6,595.2,343.2,595,342.6,595 M338.1,587.8
		c0,0.4-0.4,0.6-0.8,0.6s-0.6,0.4-0.6,0.8c0.4,0,0.6,0,0.6,0.2c0,0.2,0.4,0.4,0.8,0.4c0.4-1.2,0.8-2.4,1.2-3.3s0.8-2,1.2-3
		s0.6-2,0.8-3c0.2-1,0.4-2.2,0.4-3.5c-0.2,0.4-0.4,1-0.8,1.6c-0.4,0.6-0.8,1.2-1.4,1.6c0,0,0.2,0.2,0.4,0c0.2,0,0.2,0,0.4,0.2
		c0,0.2-0.2,0.8-0.4,1.6c-0.2,0.8-0.6,1.4-1,2.2s-0.8,1.6-1.2,2.2c-0.4,0.6-0.6,1-1,1.2C337.7,587.4,338.1,587.4,338.1,587.8
		 M340.8,609.4c-0.2,0-0.4,0-0.4-0.2c0-0.2,0-0.4,0-0.6c0-0.2,0-0.4,0-0.6c0-0.2-0.2-0.2-0.4,0c-0.2,0.2-0.4,0.8-0.4,1.2
		c-0.2,0.6-0.2,1.2-0.4,1.8c-0.2,0.6,0,1.2,0,1.8c0,0.6,0.4,1,0.6,1c0.6-0.4,0.8-1.2,0.6-2.4C340.1,610.8,340.2,610,340.8,609.4
		 M337.5,609.4c0.2-0.8-0.2-1-1-0.8c0,0.4,0,0.8,0.2,0.8C337.1,609.6,337.3,609.6,337.5,609.4 M337.1,607.5c0.6,0,0.8,0,1-0.4
		c0.2-0.4,0.2-0.6,0.4-0.8c-0.2-1.8,0-3.3,0.6-5.1c0.6-1.8,0.8-3.5,0.8-5.3c-0.4,0-0.8,0-1.2-0.2c-0.2,0.8-0.4,1.6-0.6,2.4
		c-0.2,0.8-0.4,1.4-0.8,2c0.4,1,0.4,2.4,0,3.7C336.9,604.7,336.9,606.1,337.1,607.5 M340.1,629.7c0-0.2,0.4-0.6,0.8-1
		c0.4-0.6,0.4-1-0.2-1.4c-0.4,0.8-0.8,1.4-1.2,2s-0.8,1.4-0.8,2.4c1,0.2,1.4,0.2,1.4-0.4C339.7,630.7,339.9,630.3,340.1,629.7
		 M338.3,621.4c0.6-0.2,1-0.8,1.4-1.4c0.4-0.6,0.8-1.4,1-2c0.2-0.6,0.4-1.4,0.6-2.2c0.2-0.6,0.4-1.2,0.6-1.8c-1.2,0.6-2,1.6-2.4,3
		C339.1,618.7,338.7,620.1,338.3,621.4 M343,611.2c-0.2-0.4-0.4-0.8-0.2-1.2c0.2-0.4,0.4-1,0.6-1.4c0.2-0.6,0.4-1,0.6-1.6
		c0.2-0.6,0.4-1,0.2-1.6c-1,0.2-1.6,0-2-0.2c-0.2-0.4-0.6-0.8-1-1c0,0.6-0.2,0.6-0.4,0.4c-0.2-0.2-0.4-0.4-0.6-0.6
		c-0.4,0.6-0.4,1.4,0,2.2c0.4,0.8,0.8,1.4,1.2,1.8c0-0.2,0-0.4,0-0.6c0-0.2,0-0.4,0.2-0.6c0.2,0.2,0.4,0.2,0.6,0.2
		c0.2,0,0.4,0,0.6,0.2c-0.4,0.8-0.8,1.4-1,1.8c-0.2,0.4-0.2,1.2-0.2,2.4c0.6-0.2,0.8-0.2,0.8,0.2C342.6,611.6,342.8,611.6,343,611.2
		 M344.4,603.1c0.8-0.2,1.2-0.8,1.4-1.8c0.2-1,0.4-1.8,1-2.4c-0.6,0-0.8-0.4-0.8-1s-0.4-0.8-1.2-0.6c-0.4,0.4-0.6,1-0.4,1.4
		c0,0.4,0.4,0.6,1,0.6c0,0.6-0.4,0.8-1,0.8c0-0.2,0-0.4-0.2-0.4c-0.2,0-0.4-0.2-0.8-0.2c0,0.2-0.2,0.4-0.4,0.8
		c-0.2,0.4-0.2,0.6-0.2,0.8c0.4,0.2,0.8,0.2,1.2,0.4c0.4,0,0.6,0.2,0.8,0.2c-0.2,0.4-0.4,0.8-0.4,1
		C344.2,602.3,344.2,602.7,344.4,603.1 M354.2,557.6c0.6-0.8,0.8-1.6,0.6-2.2c-0.2-0.6-0.2-1.4-0.2-2.4c-1.2,0-2,0.6-2.4,1.4
		s-0.8,1.6-1.2,2.4c0.8-0.2,1.4-0.2,1.8,0.2C353.3,557.4,353.6,557.6,354.2,557.6 M373.9,555.4c0,0.2-0.2,0.4-0.2,0.4s0,0.2,0,0.6
		c0.8,0,1-0.2,1-0.6c-0.2,0-0.4,0-0.4-0.2C374.3,555.4,374.1,555.4,373.9,555.4 M373.2,553.7c-1-0.4-2-0.4-3.2-0.4
		c-1.2,0.2-2.2,0.6-2.8,1.2c1-0.2,2.2-0.2,3.5-0.2C371.8,554.3,372.8,554.1,373.2,553.7 M370.4,555.4c-1.8,0.4-3.3,1-4.9,2.2
		c-1.6,1-2.6,2.2-3,3.3c1.4-1,2.8-1.8,3.9-2.8C367.8,557,369,556.2,370.4,555.4 M355.4,588.5c0.2,0.2,0.6,0.2,0.8,0
		c0.2-0.4,0.4-0.6,0.6-0.8c-0.4,0-0.6,0-0.6-0.4c0-0.4-0.2-0.8-0.4-1c0,0.4-0.2,1,0,1.4C355.8,588.1,355.6,588.5,355.4,588.5
		 M355.4,564.7c0.4,0.2,0.8,0.4,1.6,0.2c0-0.4,0-0.8,0.2-1c0.2-0.2,0.4-0.6,0.4-1c1.8-1.2,3.2-2.8,4.5-4.3c1.4-1.6,3-3,5.1-4.1
		c-1.8,0.6-3.3,1.4-4.5,2.4c-1.2,1-2.6,2.2-3.7,3.2c0,0-0.2-0.2-0.2-0.4s0-0.4-0.2-0.4c0.2-0.2,0.4-0.4,0.6-0.6
		c0.2-0.2,0.4-0.4,0.8-0.4c0-0.4-0.4-0.4-0.8,0c-0.4,0.4-0.8,0.6-1.2,0.6c0,0.2,0,0.4,0.2,0.6c0.2,0.2,0.2,0.4,0.4,0.6
		c0,0.2,0.2,0.4,0,0.4c0,0.2-0.2,0.2-0.6,0.4c-0.2,0-0.2-0.2-0.2-0.6c0-0.4,0-0.6,0-0.8c-0.8,0-1.2,0.2-1.6,0.8
		c-0.4,0.6-0.4,1.2-0.2,1.6c0-0.2,0.4-0.4,0.6-0.6c0.4-0.2,0.6-0.2,0.8,0c-0.2,0.6-0.6,1.2-1.2,1.6
		C355.8,563.5,355.4,564.1,355.4,564.7 M362.9,595.4c0.4,0,0.8-0.4,1.4-0.8c0.6-0.4,1-0.8,1.6-1.4c0.6-0.6,1-1,1.4-1.4
		c0.4-0.4,0.6-0.8,0.4-1c-1.2,0.8-2.6,1.4-4.3,1.8c-1.8,0.4-3.5,0.4-5.5,0c0,1,0.4,1.6,0.6,2c0.4,0.4,0.4,0.8,0.2,1.4
		c0.8-0.2,1.4-0.2,2.2-0.4C361.7,595.8,362.3,595.6,362.9,595.4 M369.8,591.9c-0.6,1-1.4,2-2.2,2.8c-0.8,0.8-1.4,1.8-2.2,2.6
		c1.4-0.4,2.6-1,3.2-2.2c0.6-1,1.2-2,1.8-3c-0.2,0-0.2,0-0.4-0.2C370,592.1,370,591.9,369.8,591.9 M358.4,602.7c0,0.2,0,0.4,0,0.4
		v0.2c0.2,0.2,0.8,0.4,1.2,0.4c0.6,0,0.8-0.4,0.8-1c-0.4,0.2-0.8,0.2-0.8,0.2C359.2,602.7,358.8,602.7,358.4,602.7 M360.9,606.5
		c0-0.6-0.4-1-1.2-0.8c-1,0-1.4,0.4-1.6,0.8C359.2,607.1,360.1,607.1,360.9,606.5 M361.3,597.4c0.2-0.4,0.2-0.6-0.2-0.6
		c-0.2,0-0.4-0.2-0.2-0.6c-0.6,0-1,0-1.2,0.6c-0.2,0.4-0.2,0.8,0,1C360.5,597.8,360.9,597.8,361.3,597.4 M364.3,602.3
		c-0.2,0-0.6,0-1,0.2c-0.4,0-0.8,0.2-1,0.2c-0.4,0-0.6,0.2-0.8,0.4c-0.2,0.2-0.2,0.4,0,0.8c0.4-0.2,0.8-0.4,1.4-0.6
		C363.9,602.9,364.1,602.7,364.3,602.3 M362.5,605.9c4.3-0.8,7.5-3,9.3-6.3H371c-0.8,0.8-1.6,1.6-2.4,2.6c-1,0.8-2,1.6-3,2.2
		c-0.6,0.2-1.4,0.4-2.2,0.4C362.7,604.9,362.3,605.3,362.5,605.9 M371.8,587c0.4-0.4,1-1,1.6-1.8c0.6-1,1-1.4,1-1.6
		c0.4-1.4,0.4-2.8,0.2-4.3c0-0.2,0.4-0.4,0.6-0.8c0.4-0.4,0.2-0.6-0.2-0.8c-0.2,0.2,0,0,0.4-0.4c0.4-0.4,0.6-0.6,0.4-0.6
		c0.2,0,0.4,0,0.4,0.2c0.2,0.2,0.4,0.2,0.6,0c0-0.8,0.2-1.6,0.4-2.6c0.2-1,0.4-2.2,0.4-3.2c0-1.2,0-2.4-0.2-3.5s-0.6-2.2-1.2-3.2
		c-0.4-0.2-0.6-0.2-0.6,0.2s-0.4,0.4-1,0.2c0.2-0.6,0.2-1-0.2-1.2c-0.2,0-0.4-0.4-0.2-0.8c-2,0.2-3.7,1-5.1,2
		c-1.4,1-2.8,2.4-4.1,3.9c-0.2,0.2-0.6,0.8-0.6,1.4c-0.2,0.6-0.6,1.2-1,1.8c-0.2,0.2-0.4,0.2-0.6,0.4c-0.2,0-0.4,0.2-0.4,0.4
		c-0.2,0-0.2,0.2,0,0.4c0.2,0.2,0.2,0.4,0.2,0.6c0,0-0.2,0.2-0.4,0.2c-0.2,0-0.4,0.2-0.6,0.2c-1,1.2-1.8,2.6-2.4,3.9
		c-0.6,1.4-0.8,2.8-1,3.9c0,0.2-0.2,0.4-0.4,0.6c-0.2,0.2-0.4,0.4-0.6,0.4c0.4,1.4,0.6,2.8,0.2,4.1c-0.4,1.2-0.4,2.8-0.2,4.3
		c0.2,0.2,0.4,0.4,0.8,0.6c0.4,0.2,0.6,0.4,0.6,0.4c2,0.2,3.7,0,5.3-0.4c1.6-0.4,2.8-1,3.5-1.8c0.6-0.4,1.4-1,2.2-1.6
		C370.4,588.1,371.4,587.4,371.8,587 M374.3,587c0,0.6,0,1-0.2,1.4c-0.2,0.4-0.6,0.8-0.8,1.2c-0.2,0.4-0.4,0.8-0.6,1.2s0,0.8,0.4,1
		c0.6-0.8,1.4-1.8,2-2.8c0.8-1,1.4-2,2-3.2c0.6-1.2,1-2.2,1.4-3.3c0.4-1.2,0.4-2.2,0.4-3.2c-0.4,0.6-0.8,1-1,1.4
		c-0.4,0.4-0.4,1-0.4,1.6c-0.8,0.6-1.2,1.4-1.4,2.4C375.7,585.8,375.1,586.6,374.3,587 M373.5,600c1.4-1,2.6-2.2,3.3-3.5
		c1-1.6,1.6-3,1.8-4.5c-0.2,0.2-0.4,0.6-0.6,1c-0.2,0.4-0.6,0.6-1,0.6c-0.4,1.4-1,2.6-1.8,3.3C374.5,597.8,373.9,598.8,373.5,600z
		 M405.7,593.7c0.2,0,0.4,0,0.4,0l0.2-0.2c0.6-0.8,1.6-1.8,2.8-3.2s2.2-2.6,2.8-3.5c0.8-0.2,1.4-0.6,1.8-1.4c0.6-0.8,0.8-1.4,1-1.8
		c1-0.2,1.6-0.6,2-1.4c0.4-0.8,1-1.2,2-1.6c0.8-1.4,1.8-2.6,3.2-3.7c1.4-1.2,2.6-2.6,3.5-4.3c1.2-0.8,2.2-1.8,3-2.8
		c0.8-1,1.6-2.2,2.6-3.3c1.6-1,2.8-2.2,3.7-3.5c1-1.2,2-2.2,3.2-3c0-0.2,0-0.4,0-0.4c-0.2,0-0.2-0.2,0-0.2c0.8,0,1.2-0.2,1.4-0.4
		c0.2-0.2,0.4-0.8,0.6-1.4c0.4-0.2,0.8-0.2,1-0.2c0.4,0,0.6-0.2,0.8-0.4c0.2-0.4,0.2-0.8,0-0.8c-0.2-0.2-0.2-0.4,0-1
		c0.4,0,1-0.2,1.4-0.2c0.4,0,1,0,1.6,0c-0.4-0.2-0.4-0.6,0-1.2c0.4-0.6,0.6-1,0.8-1.6c1,0.4,1.6,0.8,1.8,1.4
		c0.2,0.6,0.4,1.2,0.6,1.8c0,0.6,0.2,1.4,0.2,2s0.4,1.2,0.8,1.8c-0.6,1.6-0.6,3-0.2,4.1c0.6,1.2,1,2.6,1.6,3.9
		c-0.2,0.6-0.2,1.2,0,2.2c0.2,1,0.2,1.6,0.4,2.2c0,0.2,0,0.4-0.2,0.4s-0.2,0.2-0.4,0.4c0.4,1.6,0.6,3.2,0.4,4.7s-0.2,3.3,0,5.3
		c-0.4,0-0.6,0.2-0.6,0.4s0,0.6,0,1s0,0.8,0,1.2c0,0.4-0.2,0.6-0.8,0.6c0.2,0,0.4,0.2,0.4,0.4c0,0.2,0,0.4,0.2,0.4
		c-0.4,1.6-0.8,3.3-1.2,5.3c-0.4,2-0.6,3.5-1,5.1s-1,3.2-1.6,4.7c-0.6,1.6-0.8,3.3-0.8,5.3c-0.6,0.4-1,0.8-1.2,1.2
		c0,0.4-0.2,0.8-0.4,1.2c0.2,0,0.4,0,0.6,0.2c-0.6,1-1,1.8-1.2,2.8c-0.2,1-0.8,1.6-1.8,2c-0.2,0-0.4,0-0.4-0.2c0-0.2-0.2-0.2-0.6,0
		c-0.2-0.4-0.4-1-0.4-1.4c0-0.4-0.2-0.8-0.2-1.2c-0.2-0.4-0.4-0.8-0.6-1c-0.2-0.4-0.8-0.6-1.6-1c-0.8-1.8-1.2-3.3-1.6-5.1
		c-0.2-1.8-0.2-3.5,0.2-5.7c-0.2-1-0.4-2.2-0.4-3.5c0-1.2,0.2-2.4,0.6-3.3c0-1.2,0-2.4,0.2-3.7c0.2-1.4,0.4-2.8,0.6-4.1
		s0.4-2.8,0.6-4.1s0.2-2.6,0.2-3.5c-1.6,1.2-3,2.8-4.3,4.5c-1.2,1.8-2.8,3.2-4.7,4.1c-0.2,0.8-0.6,1.4-1.2,1.8
		c-0.6,0.6-1.2,0.8-1.6,1.2c0.2,0,0.4,0.2,0.4,0.2c0.2,0,0.2,0.2,0,0.4c0,0.2-0.2,0.2-0.4-0.2s-0.4-0.4-0.8,0
		c-0.2,0.2-0.2,0.2,0,0.4c0.2,0,0.2,0.2,0.2,0.4c-0.4-0.2-0.8-0.2-1,0.2c0,0,0.2,0,0.4,0.2c0.2,0.2,0,0.2-0.4,0.2
		c0-0.2-0.2-0.2-0.4,0c-0.2,0.2-0.2,0.4,0,0.6c-0.2,0-0.4,0-0.8,0c-0.2,0-0.4,0-0.6,0.4c0.4,0.2,0.6,0.2,0.6,0.4c0,0,0,0.2,0,0.4
		c-0.6,0.4-1,1-1.2,1.6c-0.2,0.6-0.6,1-1.4,1.2c-0.4-0.2-0.6-0.4-0.4-0.8c0.2-0.4,0.2-0.6-0.4-0.8c0,0.2-0.2,0.4-0.4,0.6
		c-0.2,0.2-0.4,0.4-0.8,0.6c-0.2,0.2-0.6,0.4-0.6,0.6c-0.2,0.2-0.2,0.4-0.2,0.6c-1.6,0.8-2.8,1.6-3.7,2.8c-1,1-2.4,2-4.1,2.8
		c-0.2-0.2-0.2-0.4,0-0.6c0.2-0.2,0.4-0.2,0.6-0.4c0.2,0,0.4-0.2,0.6-0.4c0.2-0.2,0-0.2-0.2-0.4c-0.2,0.4-0.8,0.8-1.8,1.2
		c-0.8,0.4-1.6,1-2.2,1.6c0.2,0,0.6,0.2,1,0.2c-1.4,1.6-3,2.8-4.9,3.7c-1.8,1-3.5,2.2-4.9,3.3c-0.2,0.6-0.6,1.4-0.8,2
		c-0.2,0.6-0.8,1.2-1.8,1.2c-0.4-0.6-0.6-1.4-0.4-2.4c0.2-1,0.2-1.8-0.2-2.6c-0.2,0-0.6,0-0.8,0c-0.2,0-0.6-0.2-0.6-0.4
		c0.4-0.4,0.6-0.6,0.6-0.8c0-0.2,0.2-0.4,0.6-0.8c-0.4-2.2-0.6-4.1-1-6.1c-0.2-2,0-4.1,0.6-6.5c-0.2,0-0.4-0.2-0.4-0.6
		c0-0.4,0-0.6,0-1c0-0.4,0-0.6,0.2-1c0-0.4,0-0.6-0.4-1c0.4,0,0.6-0.4,0.6-0.8c0-0.4,0-1,0-1.4c0-0.6,0-1,0.2-1.6c0-0.4,0.4-0.8,1-1
		c0-0.2-0.2-0.4-0.4-0.4s-0.2-0.2,0-0.6c0.4-1,0.6-2.2,0.6-3.2s0-2,0-3c0.4-2.4,1-4.7,1.6-7.3s1-4.9,1.2-7.7c0.2,0.2,0.4,0.2,0.4,0
		c0-0.2,0-0.4,0.2-0.6c-0.2-1,0-2,0.4-3.2c0.4-1.2,0.8-2.6,1.4-3.7c0.2-0.2,0.4-0.2,0.8,0c0.4,0.2,0.6,0.2,0.8,0
		c0-0.4,0.2-1,0.2-1.6c0-0.8,0.2-1.4,0.4-2.2c0.2-0.6,0.6-1.2,1-1.6c0.4-0.4,1.2-0.2,2.2,0.2c0,0.8,0.2,1.6,0.4,2.4
		c0.2,0.8,0.6,1.6,0.8,2.4c0.4,0.8,0.6,1.6,0.8,2.6c0.2,0.8,0.2,1.8,0.2,2.8c0.4,0,0.4,0.2,0.2,0.4c-0.2,0.4-0.2,0.4,0.2,0.4
		c-0.2,0.6-0.2,1.2-0.2,1.8s0.2,1.4,0.4,2c0.2,0.6,0.2,1.4,0.2,2s-0.2,1.2-0.6,1.8c0.2,0.4,0.2,1,0.2,1.8c0,0.8,0,1.6-0.2,2.2
		c0,0.6-0.2,1.4,0,2.6c0,1.2,0,1.8-0.2,2c-0.2,0.2-0.4,0.2-0.4,0c0-0.4-0.2-0.2-0.2,0.2c0,0,0,0.2,0.2,0.2s0.2,0.2,0.2,0.4
		c0,1,0,2-0.4,3.2s-0.6,2.2-0.6,2.8c-0.2,1.8-0.4,3.7-0.6,5.7C406.5,590.5,406.1,592.3,405.7,593.7 M446.6,560c-0.2-1-0.4-1.8-0.4-3
		c0-1-0.4-2-1-3c-1,2.8-1,4.9,0.6,6.7c0.4,0,0.6,0,0.4-0.2C446.3,560,446.3,560,446.6,560 M401.3,559.2c0.4-0.6,0.6-1,0.6-1.4
		c0-0.4,0-0.8-0.2-1.4c-0.6,0.4-1,0.8-1.2,1.6c-0.2,0.6-0.4,1.4-0.4,2.2c0,0.8-0.2,1.6-0.4,2.2c-0.2,0.8-0.4,1.4-0.8,2
		c0.2,1.8,0,3.7-0.6,5.9c-0.6,2.2-0.8,4.1-0.6,6.3c0.6-1.4,1-2.6,1-3.3c0-1,0.2-1.8,0.8-2.8c-0.2-0.6-0.2-1.2,0.2-1.8
		c0.4-0.6,0.6-1.4,0.6-2.2c0.2-1.2,0.4-2.6,0.8-3.7C401.3,561.4,401.5,560.2,401.3,559.2 M437.6,572.2c0.2-0.2,0.4-0.4,0.6-0.6
		c0.2-0.2,0-0.6-0.2-0.6c-0.4,0-0.6,0.2-0.6,0.4c0,0.4-0.2,0.6-0.2,0.8C437.2,572.2,437.2,572.2,437.6,572.2
		C437.6,571.8,437.6,572,437.6,572.2 M436.4,574.4c0.4-0.2,0.8-0.4,0.8-0.6c0-0.2,0-0.6,0-1.2c0,0-0.2,0-0.6,0c0,0.2,0,0.6-0.4,0.8
		C435.6,573.8,435.8,574.2,436.4,574.4 M443.9,577.9c0-0.6,0-1.2,0.2-1.8s0.2-1.2-0.2-1.8c-0.2,0.2-0.4,0.8-0.6,1.8
		C443.5,576.9,443.5,577.5,443.9,577.9 M434.8,575.7c-0.4,0.4-0.8,1-1.2,1.6c-0.4,0.6-1,1-1.6,1.2c-0.2,0.2-0.2,0.4-0.2,0.4
		c0,0.2,0.2,0.2,0.4,0.2c-0.4,0-0.8,0.2-0.8,0.8c-0.2,0.6-0.6,1-1.2,1c0,0.2,0,0.6-0.2,0.8c-0.2,0.2-0.6,0.6-0.8,0.8
		c-0.2,0.4-0.6,0.6-0.8,1c-0.2,0.4-0.2,0.6,0,1c0.2-0.6,0.6-1,1.2-1.6c0.6-0.6,1.2-1.2,1.8-1.8c0.6-0.6,1.2-1.4,1.8-2
		c0.6-0.6,1-1.4,1.2-2.2c0-0.2,0.2-0.2,0.4,0c0.2,0.2,0.4,0.2,0.4,0c0-0.2-0.2-0.4-0.6-0.6c0.2-0.4,0.6-0.4,0.6-0.2
		c0.2,0.2,0.4,0.4,0.6,0.4c-0.2-0.4-0.4-0.8-0.2-1.2c0.2-0.4,0-0.8-0.6-1.2c0.2,0.2,0.2,0.6,0,1C435.2,575.7,435,575.9,434.8,575.7
		 M443.5,586.6c0.6-0.8,0.8-1.6,0.8-2.8c0-1-0.2-2-0.4-2.8c0.4,0.4,0.4,0.6,0.2,0.2c-0.2-0.4-0.6-0.6-1-0.6c0,0.2-0.2,0.6,0,0.6
		c0,0.2,0.2,0.6,0.4,1c-0.2,0.2-0.4,0.2-0.4,0.2c-0.2,0-0.4-0.2-0.4-0.2c0,0.8,0.2,1.6,0.4,2.4C443.1,585.2,443.3,586,443.5,586.6
		 M398.8,591.5c1-1.4,1.8-3.3,2.2-5.7c0.4-2.4,0.6-4.5,0.6-6.3c-0.8,1.6-1.4,3.5-1.8,5.7C399.6,587.4,399.2,589.3,398.8,591.5
		 M423.6,585.4c0.4,0,0.6-0.2,1-0.6c-0.2,0-0.4,0-0.4,0.2c-0.4,0.2-0.6,0.2-0.6-0.2c-0.4,0-0.4,0-0.2,0.2
		C423.6,585.2,423.8,585.4,423.6,585.4 M443.1,589.5c0.4-0.2,0.6-0.4,0.4-0.6c0-0.2-0.2-0.4-0.4-0.6c-0.4,0-0.6,0.4-0.6,0.8
		C442.3,589.3,442.5,589.5,443.1,589.5 M417.1,591.1c1-0.8,2-1.6,3-2.6c1-1,2-2,3-3.2c-1,0.4-1.8,1.2-2.4,2s-1.6,1.4-2.8,1.8
		c-0.2,0.6-0.6,1-1,1.6c-0.6,0.4-1,0.8-1.6,1.2s-1.2,0.8-1.8,1.4c-0.6,0.6-1,1-1.4,1.8c1-0.8,1.8-1.4,2.6-2
		C415.9,592.3,416.7,591.7,417.1,591.1 M441.7,593.9c0.2-0.8,0.2-1.4,0-2s-0.4-1-0.6-1.6c-0.2,0.4-0.2,1-0.2,1.8
		C440.9,593.1,441.3,593.7,441.7,593.9 M438.2,608.6c-0.6-2.6-0.8-4.9-1-7.3c0-2.4-0.2-4.7-0.2-7.3c-0.4,2.6-0.6,5.1-0.6,7.7
		C436.6,604.1,437.2,606.5,438.2,608.6 M442.3,598.8c-0.2-0.4,0-0.8,0.4-1c0.4-0.2,0.6-0.6,0.4-1.2c-0.4-0.2-0.8-0.2-0.8,0
		s-0.4,0.4-0.8,0.4c-0.2,0.4-0.2,0.6-0.2,1c0,0.2,0,0.4,0,0.8C441.5,598.6,441.9,598.6,442.3,598.8 M441.3,600.8
		c0.2,0,0.4-0.2,0.4-0.4c0-0.4,0-0.6,0-0.8c-0.2,0-0.4,0.4-0.4,0.6C441.1,600.4,441.3,600.8,441.3,600.8 M410.8,595.6
		c0.2,0.4,0.2,0.6,0,0.4c-0.2-0.2-0.4-0.2-0.6,0c0,0.2,0.2,0.2,0.4,0.2c0.2,0,0.6,0,0.6,0c0-0.2,0-0.4,0.2-0.4
		C411.4,595.6,411.4,595.6,410.8,595.6 M411.6,598c0.2,0,0.4,0,0.4-0.2c0-0.2,0.2-0.2,0.4-0.2c-0.2-0.4-0.4-0.6-0.8-0.4
		C411.6,597.6,411.4,597.8,411.6,598 M398,599.8c0.6,0,0.8,0,0.8-0.4c0-0.4,0-0.6,0-1c-0.4,0-0.6,0.2-0.6,0.6
		C398.2,599.2,398,599.4,398,599.8 M440.1,606.1c0.4,0,0.6-0.2,0.6-0.4c0-0.2-0.2-0.4-0.8-0.4C440.1,605.7,440.3,605.9,440.1,606.1
		 M440.9,612.8c0.4-0.2,0.6-0.6,1-1.4c0.2-0.8,0.8-1.4,1.4-1.8c0-0.2,0-0.2-0.4,0c-0.4,0.2-0.4,0-0.2-0.2c0,0.2-0.2,0.6-0.6,0.8
		c-0.2,0.2-0.6,0.4-0.8,0.8c-0.2,0.2-0.4,0.6-0.6,0.8C440.7,612,440.7,612.4,440.9,612.8 M396.4,609c1-0.2,1.4-0.6,1.2-1.2
		c-0.2-0.6-0.4-1-0.6-1.4l-0.2-0.2c0,0-0.2,0-0.4-0.2c0.2,0.4,0.2,1,0.2,1.4C396.4,608.1,396.4,608.4,396.4,609z M486.3,588.1
		c-2,0.4-3.9,1-5.7,1.6c-1.8,0.6-3.5,1.2-5.3,2c0.8,0.8,1.6,1,2.4,1s1.6,0,2.4,0.2c-0.4,0.8-1,1.2-1.6,1.2s-1.4,0-2-0.2
		c-0.6,0-1.4,0-2,0.2c-0.6,0.2-1.2,0.8-1.6,1.8c0.4,0,0.6-0.2,0.6-0.8c1.2,0.4,2.4,1,3.2,2s1.8,1.6,3.2,1.8
		c-0.2,0.6-0.8,0.6-1.8,0.2c-1-0.4-1.4-0.8-1.6-1.2c-0.2,1,0.2,1.8,1,2.6s2,1,3.5,0.8c0-0.4,0-0.6-0.2-0.8s-0.4-0.2-0.6-0.4
		c-0.2,0-0.4-0.2-0.4-0.2s0-0.2,0.2-0.6c0.2,0,0.4,0,0.8,0.2c0.4,0.2,0.6,0.2,0.6-0.2c1,0.8,2,1.2,3.2,1.2s2.6,0,3.7-0.2
		s2.4-0.6,3.5-1c1.2-0.4,2.2-0.6,3-0.8c0,1-0.6,2-1.8,2.8s-2.4,1.2-3.5,1.6c0.8,0.2,1.6,0.2,2.4-0.2c0.8-0.4,1.6-0.8,2.4-1.4
		s1.4-1.2,1.8-2c0.6-0.8,0.8-1.6,0.8-2.2c0-0.2-0.4-0.2-0.8,0c-0.4,0.2-0.8,0.2-1.2,0.2c0-0.6,0.2-1,0.4-1.4
		c0.4-0.2,0.8-0.4,1.2-0.6c0.6-0.2,1-0.2,1.6-0.4c0.4,0,1-0.2,1.4-0.6c0,1.2-0.2,2.4-0.6,3.2c-0.6,1-1,1.8-1.8,2.6
		c-0.6,0.8-1.2,1.8-2,2.6c-0.6,1-1,2-1.2,3.2c-0.4,0-0.6,0-0.6,0.2c0,0.2-0.2,0.2-0.2,0.4c0,0.2-0.2,0.2-0.2,0.4
		c0,0.2-0.2,0.2-0.6,0.2c0.2,1.2-0.2,2.4-1.2,3c-1,0.8-2.2,1.4-3.2,1.8c-1.8-0.2-3.5-0.4-5.3-0.6c-1.8-0.2-3.7-0.2-5.7-0.4
		c-2-0.2-3.7-0.4-5.5-0.8s-3.3-1.2-4.7-2.4c-0.6-1.2-1.4-2.2-2.6-2.8c-0.4-1.6-0.8-3-1.2-4.1c-0.4-1.2-1-2.4-1.6-3.3
		c0.2-2.4,0-4.5-0.4-6.7s-0.4-4.5,0-6.9c0-0.6-0.2-1-0.6-1.4c-0.2-0.4-0.6-0.8-0.8-1.2c1.2-2.6,2.8-4.7,4.7-6.5
		c2-1.8,3.9-3.5,6.3-5.1c0.2,0,0.4-0.2,0.4-0.4s0-0.4,0.2-0.6c2-1,3.7-2.6,5.3-4.7c1.4-2,3-3.9,4.5-5.9s3.3-3.3,5.3-4.5
		c2-1.2,4.5-1.4,7.7-0.6c-0.6,0.4-1.2,0.8-2,0.8c-0.8,0-1.6,0.2-2.4,0.2c-0.8,0-1.6,0.2-2.4,0.4c-0.8,0.2-1.2,0.6-1.6,1.4
		c0.4,0.4,0.8,0.6,1.6,0.6c0.6,0,1.2,0.2,1.4,0.8c0.4-0.4,1-0.6,1.6-0.8s1.2-0.4,1.6-0.6c0.6-0.2,1-0.6,1.4-0.8
		c0.4-0.4,0.8-0.8,1-1.6c1,0.2,2,0.2,3.2,0c1.2-0.2,2.2-0.4,3.2-0.8c1-0.2,2.2-0.4,3.2-0.4s2,0.6,2.8,1.4c1.6-0.2,2.8-0.2,3.7,0.4
		c1,0.6,1.8,1.2,2.4,2.2s1,2,1.4,3.2c0.4,1.2,0.6,2.4,0.8,3.5c-0.2,1.6-0.6,2.8-1.6,3.9c-0.8,1-1.8,2.2-2.6,3.2
		c-1,1-1.8,2.2-2.6,3.5c-0.8,1.2-1.2,2.8-1.4,4.5c-0.8,0-1.4,0-2,0.2c-0.6,0.2-1,0.6-1.6,0.6c0-0.4,0.2-0.6,0.6-0.8s0.6-0.4,1-0.4
		c0.4-0.2,0.6-0.4,0.8-0.6c0.2-0.2,0.2-0.6,0.2-1.2c-1.6,0.2-2.8,0.8-3.7,2c-1,1.2-2.2,2.2-3.5,2.8c-0.4,0.2-1,0.2-1.6,0.2
		s-1.2,0-1.6,0.2c-1.6,0.8-3,1.6-4.3,2.6s-2.8,2-4.1,2.6c-0.6,0-0.8,0.2-0.4,0.6C486.5,587.6,486.5,588,486.3,588.1 M491.4,606.7
		c-0.6,1-1.6,1.6-2.8,1.8c-1.2,0.2-2.6,0.6-3.7,0.8c0,0.4,0.2,0.6,0,0.8c0,0,0,0.4,0,1c3.3-0.2,5.9-1.4,7.3-3.5
		c-0.2,0.2-0.4,0-0.4-0.2C491.8,607.1,491.6,606.9,491.4,606.7 M499.5,556.4c0.6,0,1.4,0.2,2,0.2s1.2-0.2,1.6-0.8
		c-1,0-1.6,0-2.4-0.2C499.8,555.4,499.5,555.6,499.5,556.4 M506.9,556.6c0.8,0.8,1.4,1.4,2,2c0.6,0.6,1.4,1.2,2.4,1.4
		c0-0.4,0.2-0.8,0.4-1.2c-0.4-0.2-0.8-0.4-1-0.8c-0.2-0.4-0.6-0.6-0.8-0.8c0-0.4,0.2-0.6,0.2-0.6s0-0.4-0.2-0.8
		c-0.2,0.2-0.6,0.2-0.8,0c-0.4-0.2-0.6-0.2-0.8-0.4c-0.2-0.2-0.6-0.2-0.8,0C507.1,555.6,506.9,556,506.9,556.6 M481.1,561.4
		c1.2-0.4,2.6-1,3.7-1.4s2.2-1.2,2.8-2.4c-1.8-0.2-3,0-3.7,1C482.9,559.6,482.1,560.6,481.1,561.4 M487.8,564.5
		c-0.2,0.2-0.6,0.8-1,1.4c-0.6,0.6-1.2,0.8-2,0.4c-0.2,0.6-0.6,1-1,1.4c-0.4,0.4-0.8,0.8-1.4,1.2c-0.4,0.4-1,0.6-1.4,1
		s-0.8,0.8-1,1.4c0.8,0,1.6-0.2,2.2-0.6c0.6-0.4,1.2-0.6,1.8-1.2c0.6-0.4,1.2-0.8,1.8-1.2c0.6-0.4,1.2-0.6,2-1
		c-0.2,0.4-0.2,0.8-0.2,0.8c0,0.2,0.2,0.4,0.2,0.8c-1,0.8-2.2,1.4-3.5,2c-1.2,0.6-2.2,1.4-3,2.6c0.6,0,1,0.2,1.2,0.6
		c-0.8,1-1.6,1.8-2.4,2.4s-1.6,1.4-2.4,2.2c2.6,0,4.7-0.4,6.3-1.2c1.8-0.8,3.3-1.6,4.7-2.8c1.4-1.2,2.8-2.4,3.9-3.5
		c1.2-1.2,2.6-2.4,3.9-3.5c0-0.6,0.2-1,0.4-1.4c0.2-0.4,0.6-0.8,0.8-1c0.2-0.4,0.6-0.6,0.8-1.2c0.2-0.4,0.2-1,0.2-1.8
		c-0.8,0.6-1.4,0.8-2,0.8s-1,0-1.6-0.2c-0.4-0.2-1-0.4-1.6-0.6c-0.6-0.2-1.2-0.2-2,0c1-0.6,2-1,3.2-1c1.2-0.2,2.2-0.8,3-1.6
		c-2.4-0.4-4.3,0-5.9,1C490.4,562.1,489,563.3,487.8,564.5 M501,564.3c0.8,0.2,1,0.4,0.6,0.8c-0.2,0.4-0.2,0.8,0.2,1.2
		c0.8,0,1-0.2,1-0.8c0-0.6,0.2-1.2,0.6-1.6c-0.4-0.2-0.6-0.4-0.8-0.6c-0.2-0.2-0.4-0.4-0.8-0.4c0.2,0.6,0,0.8-0.2,0.8
		C501.2,563.5,501,563.7,501,564.3 M509.9,568.1c0.6-0.4,1-1,1.2-1.6c0.2-0.6,0.4-1.4,0.6-2.2h-1c0,0.8-0.2,1.4-0.6,2
		C509.7,566.7,509.7,567.3,509.9,568.1 M487.8,577.5c1.4-0.6,3-1.2,4.3-2c1.4-0.6,2.8-1.4,3.9-2.4c1.2-1,2.2-2,3-3.2
		c0.8-1.2,1.4-2.8,1.6-4.5c-0.2,0-0.4-0.2-0.4-0.4c0-0.2-0.2-0.4-0.6-0.4c-1.6,2.4-3.5,4.5-5.5,6.5C492,573.6,490,575.5,487.8,577.5
		 M501.4,569.8c0.8,0.4,1.4,0.4,1.8-0.4c0.6-0.8,0.8-1.4,1-2.2c0-0.2,0-0.4-0.2-0.4s-0.2-0.2-0.2-0.2c-0.6,0.4-1.2,1-1.6,1.4
		C502,568.6,501.6,569.2,501.4,569.8 M505.8,572.4c0-0.4,0.2-0.8,0.4-1c0.2-0.2,0.4-0.6,0.2-1c-0.6,0-1,0.2-1.2,0.8
		C505.2,571.8,505.4,572.2,505.8,572.4 M478,572.8c0.6,0,1.2,0,1.6-0.2v-1.2C478.8,571.4,478.4,572,478,572.8 M504,574.9
		c0-0.2,0.4-0.8,0.8-1.4c0.4-0.6,0.4-1.2-0.4-1.4c0,0.4-0.2,0.8-0.6,1.2C503.2,574,503.4,574.4,504,574.9 M474.6,579.3
		c0.4,0,1-0.2,1.6-0.4c0.6-0.2,1.2-0.6,1.6-1c0.6-0.4,0.8-0.8,1.2-1.4c0.2-0.4,0.4-1,0.2-1.6c-0.4,0.4-0.8,0.6-1.4,0.8
		c-0.6,0.2-1,0.4-1.6,0.8c-0.6,0.2-1,0.6-1.2,1C474.8,577.9,474.6,578.7,474.6,579.3 M462,581.3c0.6-1,1.4-2,2.2-3
		c0.8-1,1.4-2,1.6-2.8c-0.8,1-1.6,1.8-2.6,2.8C462.2,579.1,461.8,580.1,462,581.3 M498.9,577.9c0.4,0.2,0.8,0.2,0.8,0
		c0.2-0.2,0.4-0.4,0.8-0.2c0-0.2,0-0.4,0-0.6c0-0.2,0-0.4-0.2-0.4c-0.2,0.2-0.6,0.4-0.8,0.6C499.3,577.3,499.1,577.7,498.9,577.9
		 M474.6,580.9c0.4,0.4,0.4,0.8,0.2,1c-0.2,0.2-0.6,0.6-1,0.8c1.4,0.2,2.8,0,4.1-0.6c1.4-0.6,2.6-1.2,3.7-1.6
		c-0.2-0.4-0.8-0.6-1.4-0.6s-1.2,0-2,0.2c-0.6,0.2-1.4,0.4-2.2,0.4C475.8,580.7,475,580.7,474.6,580.9 M482.1,585
		c0.6,0,1.4-0.2,2.4-0.4c1-0.2,2-0.4,3-0.8c1-0.4,1.8-0.8,2.6-1.2c0.6-0.4,1-1,0.8-1.6c-1.4,0.8-2.8,1.4-4.5,1.8
		C484.7,583.2,483.3,584,482.1,585 M470.9,596.8c0.4,0.4,0.8,0.8,1,1.2s0.4,0.8,0.8,1c0.2,0.4,0.6,0.6,1,0.8s1,0.4,1.6,0.4
		c-1-1-1.8-2-2.4-3.2c-0.8-1-1.6-2.2-2.4-3.2c0,0.4,0,0.6,0,0.8c0.2,0.2,0.2,0.4,0.4,0.6c0.2,0.2,0.2,0.4,0.2,0.6
		C471.1,596,471.1,596.4,470.9,596.8 M486.3,602.7c0.4,0,0.8,0,1,0c0.4,0,0.4-0.2,0.4-0.4c-0.2-0.2-0.6-0.2-1-0.2
		C486.3,601.9,486.1,602.1,486.3,602.7 M482.3,602.9c0.8,0.6,1.8,0.8,2.8,0.2c0-0.8-0.4-1.2-1.4-1.2
		C483.1,602.1,482.5,602.3,482.3,602.9 M472.5,606.7c0.4,0,0.8,0,1.2,0c0.4,0,0.4-0.2,0.4-0.8c-0.4,0-0.8,0-1.2,0
		c-0.2-0.2-0.6-0.2-0.8-0.4c-0.2-0.2-0.4-0.2-0.6-0.2s-0.4,0.2-0.6,0.6c0.4,0.2,0.8,0.2,1,0C472.5,605.7,472.5,605.9,472.5,606.7z"
		/>
</g>
<g id="SvgjsG1008" transform="translate(-0.3748551368713379,-0.9406236290931702) scale(1.3)" xmlns:name="symbol_mainfill">
	<g>
		<path fill="#FF9100" d="M18.6,255c5.3,0,10.6,0,16.2,0c0,2.6,0,5.1,0,8.3c1.2-0.8,2-1.4,2.6-1.8c6.9-5.3,13.8-10.6,20.7-16
			c3.2-2.4,6.7-2.4,10.2,0.4c9.9,7.5,19.7,15.2,29.6,22.7c8.1,6.1,16,12.4,24,18.5c2.2,1.6,3.5,3.5,3,6.1c-1,4.9-7.5,6.9-12,3.3
			c-6.9-5.1-13.6-10.4-20.5-15.8c-9.1-6.9-17.9-13.8-26.8-20.7c-2-1.6-3.2-1.6-5.1,0c-15.6,12.2-31.3,24.2-47.3,36.3
			c-1.2,0.8-2.4,1.6-3.7,2c-3.2,1-6.5-0.4-8.1-2.8c-1.8-2.4-1.2-5.7,1.6-7.9c4.5-3.5,9.3-7.1,13.8-10.8c1-0.8,1.8-2.4,1.8-3.5
			C18.8,267.4,18.6,261.3,18.6,255z"/>
		<path fill="#FF9100" d="M45.8,291.8h11.4v15.6H41.7V296C41.7,293.8,43.7,291.8,45.8,291.8z"/>
		<path fill="#FF9100" d="M41.7,316.7h15.6v15.6H45.8c-2.4,0-4.1-1.8-4.1-4.1L41.7,316.7L41.7,316.7z"/>
		<path fill="#FF9100" d="M83.9,296v11.4H68.3v-15.6h11.4C81.9,291.8,83.9,293.8,83.9,296z"/>
		<path fill="#FF9100" d="M83.9,316.7v3.7c-4.3,3.3-7.5,8.3-9.1,11c-0.2,0.2-0.2,0.4-0.4,0.8l0,0h-5.9v-15.6
			C68.3,316.7,83.9,316.7,83.9,316.7z"/>
		<path fill="#FF9100" d="M123.5,313.9c0,0.2-5.9,1-6.3,1.2c-3.2,0.6-6.3,1-9.5,1.6c-6.5,1.2-12.8,2.8-18.3,6.1
			c-0.6,0.4-1.2,0.8-1.8,1.2c-3.3,2.4-6.5,6.5-8.7,10c-0.2,0.2-0.2,0.4-0.4,0.8c-3,5.1-4.9,10.6-6.1,16.4c-0.4,1.6-0.6,3.2-0.8,4.7
			c0,0.6-0.4,4.5-0.6,6.9c0.2-0.2,0.8-0.6,1.8-1.4c1.2-1,2.8-2.2,4.7-3.7c2-1.6,4.1-3.5,6.7-5.5c1.2-1,2.4-2.2,3.7-3.3
			c0.6-0.4,1-1,1.6-1.4l0,0c0.8-0.6,1.4-1.2,2.2-2c1.2-1.2,2.4-2.4,3.5-3.5c1.2-1.2,2.4-2.4,3.5-3.5c1.2-1.2,2.2-2.4,3.2-3.3
			c0.2-0.2,0.2-0.2,0.4-0.4h0.6l0,0c-0.2,0.2-0.4,0.4-0.6,0.8c-1,1.2-2,2.2-3,3.5c-1,1.2-2.2,2.4-3.3,3.5c-1.2,1.2-2.4,2.4-3.5,3.7
			c-1,1-2,2-3,2.8l0,0c-0.2,0.2-0.6,0.4-0.8,0.8c-1.2,1.2-2.4,2.4-3.5,3.3c-2.4,2.2-4.5,4.1-6.5,5.9c-2,1.8-3.5,3.2-4.7,4.1
			c-1,0.8-1.6,1.2-1.8,1.4C126.4,361.8,123.5,313.9,123.5,313.9z"/>
		<path fill="#FF9100" d="M60.6,352.5c-1.4-1.8-3-3.2-4.5-4.5c-16.9-14.2-36.6-3.3-36.6-3.3s2.4,3.3,2.6,3.7
			c4.1,5.9,8.1,12.4,14.6,16c2.6,1.4,6.1,2.2,9.1,2.4c5.3,0.6,11-0.2,16.2-2c0.6-0.2,5.7-2,5.7-2.2C65.3,358.6,63,355.3,60.6,352.5z
			"/>
	</g>
</g>
</svg>
